<svg xmlns="http://www.w3.org/2000/svg" width="112.432" height="117.565" viewBox="0 0 112.432 117.565">
  <g id="noun_Roman_3061105" transform="translate(-1.048 0.002)">
    <path id="Path_81" data-name="Path 81" d="M77.35,56.113c-15.77-6.8-17.286-16.05-17.286-16.05A43.888,43.888,0,0,0,76.171,43.9c-.792-8.818-1.391-16.725-1.705-21.058a1.18,1.18,0,0,0-2.159-.564C56.724,45.125,45.789,37.988,43.626,36.2q-.193-.181-.393-.353h0A12.264,12.264,0,1,0,33.177,57.229l18.176,4.477c3.1,13.321,21.63,21.483,28.773,24.17a1.181,1.181,0,0,0,1.528-1.483,193.823,193.823,0,0,1-4.3-28.28Z" transform="translate(31.764 31.519)" fill="#b50610"/>
    <path id="Path_82" data-name="Path 82" d="M67.833,80.341l-16.54-4.074A14.987,14.987,0,1,1,63.682,50.153q.209.18.409.364a8.527,8.527,0,0,0,5.337,1.8h0c4.472,0,11.773-3.131,21.161-18.042l.005-.008A37.575,37.575,0,0,0,18.057,48.023c0,1.147.054,2.281.155,3.4.166,1.9,3.143,37.846-7.76,48.746a1.179,1.179,0,0,0,.721,2.034c9.024.635,36.3.965,48.846-16.612,0,0-.021-.086-.064-.25a37.332,37.332,0,0,0,9.016-2.194A21.723,21.723,0,0,1,67.833,80.341Z" transform="translate(13.091 15.148)" fill="#b50610"/>
    <path id="Path_83" data-name="Path 83" d="M28.727,89.4a156.144,156.144,0,0,0-.137-22.59c-.11-1.217-.165-2.444-.165-3.638a40.277,40.277,0,0,1,67-30.163.744.744,0,0,0,1.114-.133L105.46,19.8a.764.764,0,0,0-.041-.917A54.517,54.517,0,0,0,63.42,0c-28.942,0-52.4,21.035-52.4,46.983,0,1.434.076,2.853.216,4.254.227,2.336,4.226,45.622-9.971,60.142a.747.747,0,0,0,.768,1.233A76.184,76.184,0,0,1,20.038,109C24.66,106.159,27.744,102.856,28.727,89.4Z" transform="translate(0 0)" fill="#b50610"/>
  </g>
</svg>
