<svg xmlns="http://www.w3.org/2000/svg" width="97.918" height="96.2" viewBox="0 0 97.918 96.2">
  <g id="Group_16" data-name="Group 16" transform="translate(0 0)">
    <path id="Path_44" data-name="Path 44" d="M29.627,11.144,22.7,18.076,11.631,7.011a5.872,5.872,0,1,0-4.62,4.621L18.074,22.7l-6.931,6.931,3.465,3.463,5.776-5.773,4.045,4.045a30.364,30.364,0,0,1,6.941-6.92l-4.053-4.053,5.775-5.776Z" transform="translate(97.918 96.198) rotate(180)" fill="#b50000"/>
    <path id="Path_45" data-name="Path 45" d="M22.653,0,3.816,18.839,0,29.585l10.744-3.816L29.573,6.941A30.429,30.429,0,0,1,22.653,0Z" transform="translate(96.199 29.586) rotate(180)" fill="#b50000"/>
    <path id="Path_46" data-name="Path 46" d="M31.368,1.72a5.871,5.871,0,0,0-9.913,5.291L10.393,18.074,3.465,11.143,0,14.608l5.775,5.776L1.72,24.437a30.389,30.389,0,0,1,6.94,6.92l4.046-4.046,5.775,5.78,3.465-3.465L15.014,22.7,26.077,11.631A5.87,5.87,0,0,0,31.368,1.72Z" transform="translate(33.088 96.2) rotate(180)" fill="#b50000"/>
    <path id="Path_47" data-name="Path 47" d="M6.922,0A30.4,30.4,0,0,1,0,6.94L18.829,25.769l10.746,3.818L25.76,18.84Z" transform="translate(31.296 29.586) rotate(180)" fill="#b50000"/>
    <path id="Path_48" data-name="Path 48" d="M6,0a6,6,0,1,0,6,6A6.012,6.012,0,0,0,6,0Z" transform="translate(54.962 53.176) rotate(180)" fill="#b50000"/>
    <g id="Group_6" data-name="Group 6" transform="translate(77.486 75.698) rotate(180)">
      <g id="Group_5" data-name="Group 5" transform="translate(0)">
        <path id="Path_49" data-name="Path 49" d="M28.526,0A28.525,28.525,0,1,0,57.05,28.524,28.524,28.524,0,0,0,28.526,0Zm0,36.155a7.633,7.633,0,1,1,7.631-7.632A7.636,7.636,0,0,1,28.526,36.155Z" fill="#b50000"/>
      </g>
    </g>
  </g>
</svg>
