<svg xmlns="http://www.w3.org/2000/svg" width="193.713" height="96.2" viewBox="0 0 193.713 96.2">
  <path id="city" d="M195.008,120.144V85.633l-5.271-2.063V75.076H186.5V82.3l-2.675-1.047V69.842l-24.959-10.4v18.79h-4.78V66.669h-3.552V57.053h-6.795a5.625,5.625,0,0,0-10.749,0h-6.87v9.616h-3.553V78.232h-3.649V60.693L105.085,49.467V34.085H88.175a4.9,4.9,0,1,0-6.523,0H65.51V67.5l-14.7,8.93-2.876-2.879H44.273V58.913H38.451V55.545H28.723v3.368H22.9V73.548H18.765L11.79,80.532V101.2h-3.4v18.941H5.86v1.619H199.573v-1.619Z" transform="translate(-5.86 -25.563)" fill="#898888"/>
</svg>
