<svg xmlns="http://www.w3.org/2000/svg" width="100.139" height="96.414" viewBox="0 0 100.139 96.414">
  <g id="Group_17" data-name="Group 17" transform="translate(0)">
    <path id="Path_3" data-name="Path 3" d="M152.858,42.229a12.9,12.9,0,0,1-5.993,4.2,13.305,13.305,0,0,1,2.338-7,12.938,12.938,0,0,1,5.99-4.2A13.341,13.341,0,0,1,152.858,42.229Z" transform="translate(-124.677 -35.229)" fill="#0e8457"/>
    <path id="Path_4" data-name="Path 4" d="M129.117,103.8a12.765,12.765,0,0,1-7.155-1.319,11.389,11.389,0,0,1,13.668-1.976A12.891,12.891,0,0,1,129.117,103.8Z" transform="translate(-104.308 -87.462)" fill="#0e8457"/>
    <path id="Path_5" data-name="Path 5" d="M87.642,144.422a12.735,12.735,0,0,1-7.155,1.353,13.143,13.143,0,0,1,4.94-5.435,12.724,12.724,0,0,1,7.146-1.348A13.107,13.107,0,0,1,87.642,144.422Z" transform="translate(-70.384 -120.044)" fill="#0e8457"/>
    <path id="Path_6" data-name="Path 6" d="M66.328,203.392a12.881,12.881,0,0,1-6.067,4.077,13.289,13.289,0,0,1,2.464-6.957,12.854,12.854,0,0,1,6.062-4.079A13.31,13.31,0,0,1,66.328,203.392Z" transform="translate(-53.841 -167.082)" fill="#0e8457"/>
    <path id="Path_7" data-name="Path 7" d="M74.4,270.674a13.145,13.145,0,0,1-4,6.184,13.382,13.382,0,0,1-.434-7.384,13.146,13.146,0,0,1,4-6.18A13.371,13.371,0,0,1,74.4,270.674Z" transform="translate(-61.495 -221.769)" fill="#0e8457"/>
    <path id="Path_8" data-name="Path 8" d="M98.5,331.666a13.347,13.347,0,0,1-1.018,7.323,11.888,11.888,0,0,1-2.465-13.816A13.183,13.183,0,0,1,98.5,331.666Z" transform="translate(-81.303 -272.383)" fill="#0e8457"/>
    <path id="Path_9" data-name="Path 9" d="M134.553,374.055a13.353,13.353,0,0,1,1.007,7.325,13.022,13.022,0,0,1-5.117-5.258,13.406,13.406,0,0,1-1.007-7.324A12.974,12.974,0,0,1,134.553,374.055Z" transform="translate(-110.311 -308.065)" fill="#0e8457"/>
    <path id="Path_10" data-name="Path 10" d="M183.221,410.562a13.215,13.215,0,0,1,3.322,6.575,12.8,12.8,0,0,1-6.529-3.246,13.289,13.289,0,0,1-3.329-6.574A12.846,12.846,0,0,1,183.221,410.562Z" transform="translate(-149.068 -339.57)" fill="#0e8457"/>
    <path id="Path_11" data-name="Path 11" d="M56.5,147.635a13.293,13.293,0,0,1-2.157,7.06,11.893,11.893,0,0,1-.266-14.038A13.291,13.291,0,0,1,56.5,147.635Z" transform="translate(-47.016 -121.462)" fill="#0e8457"/>
    <path id="Path_12" data-name="Path 12" d="M30.557,244.54a13.34,13.34,0,0,1,1.612,7.207,12.973,12.973,0,0,1-5.534-4.795,13.373,13.373,0,0,1-1.609-7.217A12.988,12.988,0,0,1,30.557,244.54Z" transform="translate(-25 -202.5)" fill="#0e8457"/>
    <path id="Path_13" data-name="Path 13" d="M38.419,331.239a13.163,13.163,0,0,1,4.26,5.993,12.732,12.732,0,0,1-6.939-2.215,13.164,13.164,0,0,1-4.259-5.995A12.747,12.747,0,0,1,38.419,331.239Z" transform="translate(-30.301 -275.531)" fill="#0e8457"/>
    <path id="Path_14" data-name="Path 14" d="M81.447,406.019a12.96,12.96,0,0,1,6.075,4.065,12.75,12.75,0,0,1-7.256.44,12.9,12.9,0,0,1-6.078-4.064A12.746,12.746,0,0,1,81.447,406.019Z" transform="translate(-65.232 -338.221)" fill="#0e8457"/>
    <path id="Path_15" data-name="Path 15" d="M128.407,442.9a12.764,12.764,0,0,1,7.029,1.881,11.386,11.386,0,0,1-13.775.893A12.85,12.85,0,0,1,128.407,442.9Z" transform="translate(-104.062 -368.656)" fill="#0e8457"/>
    <path id="Path_16" data-name="Path 16" d="M190.7,467a12.728,12.728,0,0,1,7.27.1,12.98,12.98,0,0,1-5.881,4.345,12.735,12.735,0,0,1-7.272-.092A12.982,12.982,0,0,1,190.7,467Z" transform="translate(-155.721 -387.984)" fill="#0e8457"/>
    <path id="Path_17" data-name="Path 17" d="M96.428,83.09a13.1,13.1,0,0,1-4.334,5.94,13.393,13.393,0,0,1-.021-7.393A13.126,13.126,0,0,1,96.406,75.7,13.357,13.357,0,0,1,96.428,83.09Z" transform="translate(-79.433 -68.327)" fill="#0e8457"/>
    <path id="Path_18" data-name="Path 18" d="M245.06,438.747A12.762,12.762,0,0,0,238.1,436.6a13.126,13.126,0,0,0,4.311,5.954,12.778,12.778,0,0,0,6.959,2.151A13.144,13.144,0,0,0,245.06,438.747Z" transform="translate(-199.302 -363.518)" fill="#0e8457"/>
    <path id="Path_19" data-name="Path 19" d="M409.72,42.229a12.906,12.906,0,0,0,5.993,4.2,13.309,13.309,0,0,0-2.337-7,12.944,12.944,0,0,0-5.992-4.2A13.346,13.346,0,0,0,409.72,42.229Z" transform="translate(-337.763 -35.229)" fill="#0e8457"/>
    <path id="Path_20" data-name="Path 20" d="M409.469,103.8a12.753,12.753,0,0,0,7.154-1.319,11.386,11.386,0,0,0-13.667-1.976A12.9,12.9,0,0,0,409.469,103.8Z" transform="translate(-334.141 -87.462)" fill="#0e8457"/>
    <path id="Path_21" data-name="Path 21" d="M458.058,144.422a12.728,12.728,0,0,0,7.153,1.353,13.136,13.136,0,0,0-4.938-5.435,12.721,12.721,0,0,0-7.145-1.348A13.1,13.1,0,0,0,458.058,144.422Z" transform="translate(-375.178 -120.044)" fill="#0e8457"/>
    <path id="Path_22" data-name="Path 22" d="M495.362,203.392a12.879,12.879,0,0,0,6.066,4.077,13.281,13.281,0,0,0-2.465-6.957,12.847,12.847,0,0,0-6.06-4.079A13.289,13.289,0,0,0,495.362,203.392Z" transform="translate(-407.711 -167.082)" fill="#0e8457"/>
    <path id="Path_23" data-name="Path 23" d="M502.58,270.674a13.14,13.14,0,0,0,4,6.184,13.412,13.412,0,0,0,.431-7.384,13.13,13.13,0,0,0-3.995-6.18A13.347,13.347,0,0,0,502.58,270.674Z" transform="translate(-415.343 -221.769)" fill="#0e8457"/>
    <path id="Path_24" data-name="Path 24" d="M479.8,331.666a13.374,13.374,0,0,0,1.02,7.323,11.886,11.886,0,0,0,2.466-13.816A13.2,13.2,0,0,0,479.8,331.666Z" transform="translate(-396.862 -272.383)" fill="#0e8457"/>
    <path id="Path_25" data-name="Path 25" d="M436.705,374.055a13.359,13.359,0,0,0-1.008,7.325,13.012,13.012,0,0,0,5.116-5.258,13.392,13.392,0,0,0,1.008-7.324A12.973,12.973,0,0,0,436.705,374.055Z" transform="translate(-360.81 -308.065)" fill="#0e8457"/>
    <path id="Path_26" data-name="Path 26" d="M372.485,410.562a13.226,13.226,0,0,0-3.322,6.575,12.793,12.793,0,0,0,6.529-3.246,13.3,13.3,0,0,0,3.329-6.574A12.839,12.839,0,0,0,372.485,410.562Z" transform="translate(-306.501 -339.57)" fill="#0e8457"/>
    <path id="Path_27" data-name="Path 27" d="M522.88,147.635a13.306,13.306,0,0,0,2.158,7.06,11.888,11.888,0,0,0,.264-14.038A13.316,13.316,0,0,0,522.88,147.635Z" transform="translate(-432.229 -121.462)" fill="#0e8457"/>
    <path id="Path_28" data-name="Path 28" d="M537.113,244.54a13.331,13.331,0,0,0-1.613,7.207,12.972,12.972,0,0,0,5.534-4.795,13.371,13.371,0,0,0,1.61-7.217A12.981,12.981,0,0,0,537.113,244.54Z" transform="translate(-442.532 -202.5)" fill="#0e8457"/>
    <path id="Path_29" data-name="Path 29" d="M511.271,331.239a13.163,13.163,0,0,0-4.258,5.993,12.735,12.735,0,0,0,6.939-2.215,13.17,13.17,0,0,0,4.257-5.995A12.747,12.747,0,0,0,511.271,331.239Z" transform="translate(-419.252 -275.531)" fill="#0e8457"/>
    <path id="Path_30" data-name="Path 30" d="M458.639,406.019a12.96,12.96,0,0,0-6.075,4.065,12.753,12.753,0,0,0,7.257.44,12.9,12.9,0,0,0,6.078-4.064A12.745,12.745,0,0,0,458.639,406.019Z" transform="translate(-374.717 -338.221)" fill="#0e8457"/>
    <path id="Path_31" data-name="Path 31" d="M409.709,442.9a12.757,12.757,0,0,0-7.028,1.881,11.385,11.385,0,0,0,13.774.893A12.852,12.852,0,0,0,409.709,442.9Z" transform="translate(-333.916 -368.656)" fill="#0e8457"/>
    <path id="Path_32" data-name="Path 32" d="M350.2,467a12.731,12.731,0,0,0-7.271.1,12.972,12.972,0,0,0,5.883,4.345,12.73,12.73,0,0,0,7.27-.092A12.97,12.97,0,0,0,350.2,467Z" transform="translate(-285.042 -387.984)" fill="#0e8457"/>
    <path id="Path_33" data-name="Path 33" d="M479.3,83.09a13.1,13.1,0,0,0,4.334,5.94,13.372,13.372,0,0,0,.02-7.393,13.126,13.126,0,0,0-4.331-5.942A13.364,13.364,0,0,0,479.3,83.09Z" transform="translate(-396.161 -68.327)" fill="#0e8457"/>
    <path id="Path_34" data-name="Path 34" d="M304.309,438.747a12.759,12.759,0,0,1,6.959-2.151,13.122,13.122,0,0,1-4.311,5.954A12.769,12.769,0,0,1,300,444.7,13.139,13.139,0,0,1,304.309,438.747Z" transform="translate(-249.93 -363.518)" fill="#0e8457"/>
    <path id="Path_35" data-name="Path 35" d="M225.485,497.63a.579.579,0,0,1-.3-.087.607.607,0,0,1-.2-.824,30.44,30.44,0,0,1,8.255-8.394,57.6,57.6,0,0,1,9.469-5.594.588.588,0,0,1,.772.319.6.6,0,0,1-.315.786,57.772,57.772,0,0,0-9.254,5.476,29.823,29.823,0,0,0-7.915,8.029A.588.588,0,0,1,225.485,497.63Z" transform="translate(-188.5 -401.215)" fill="#0e8457"/>
    <path id="Path_36" data-name="Path 36" d="M290.83,497.627a.593.593,0,0,1-.5-.291,29.785,29.785,0,0,0-7.915-8.029,57.789,57.789,0,0,0-9.254-5.476.6.6,0,0,1-.315-.785.589.589,0,0,1,.773-.318,57.5,57.5,0,0,1,9.469,5.594,30.479,30.479,0,0,1,8.256,8.394.609.609,0,0,1-.2.824A.592.592,0,0,1,290.83,497.627Z" transform="translate(-227.678 -401.213)" fill="#0e8457"/>
    <text id="_7" data-name="7" transform="translate(36.187 57.113)" fill="#118457" stroke="#118457" stroke-width="1" font-size="49" font-family="ArialMT, Arial"><tspan x="0" y="0">7</tspan></text>
  </g>
</svg>
