<svg xmlns="http://www.w3.org/2000/svg" width="96.322" height="96.302" viewBox="0 0 96.322 96.302">
  <g id="coin" transform="translate(-5 -5.009)">
    <path id="Path_63" data-name="Path 63" d="M68.922,80.482a1.972,1.972,0,1,0,0,3.944,1.972,1.972,0,0,0,0-3.944Z" transform="translate(4.351 5.302)" fill="#d4af37"/>
    <path id="Path_64" data-name="Path 64" d="M32.423,73.25H45.451l5.582,10.234.52,2a.652.652,0,0,0,.793.492L74.24,80.391a.678.678,0,0,0,.493-.821L70.327,62.3a26.961,26.961,0,0,0,6.951-18.333c0-14.108-10.28-25.533-22.96-25.533S31.359,29.861,31.359,43.969c0,.27.019.552.027.821-.027.037-.055.073-.081.11l-4.68,6.7a3.02,3.02,0,0,0,.764,4.215l1.753,1.231a6.789,6.789,0,0,0,.081,3.066,2.306,2.306,0,0,0-.657,2.162c0,1.091.458,1.581,1.752,2.874a7.836,7.836,0,0,0-.409,2.518,8.244,8.244,0,0,0,.217,1.807,2.555,2.555,0,0,0-.3,1.177,2.6,2.6,0,0,0,2.6,2.6Z" transform="translate(1.481 0.943)" fill="#d4af37"/>
    <circle id="Ellipse_3" data-name="Ellipse 3" cx="1.962" cy="1.962" r="1.962" transform="translate(61.915 90.055)" fill="#d4af37"/>
    <circle id="Ellipse_4" data-name="Ellipse 4" cx="1.962" cy="1.962" r="1.962" transform="translate(50.985 91.423)" fill="#d4af37"/>
    <path id="Path_65" data-name="Path 65" d="M77.378,22.608a1.962,1.962,0,1,0,0,3.924,1.962,1.962,0,0,0,0-3.924Z" transform="translate(4.945 1.236)" fill="#d4af37"/>
    <circle id="Ellipse_5" data-name="Ellipse 5" cx="1.962" cy="1.962" r="1.962" transform="translate(79.318 79.655)" fill="#d4af37"/>
    <circle id="Ellipse_6" data-name="Ellipse 6" cx="1.962" cy="1.962" r="1.962" transform="translate(89.901 41.924)" fill="#d4af37"/>
    <circle id="Ellipse_7" data-name="Ellipse 7" cx="1.962" cy="1.962" r="1.962" transform="translate(89.575 61.903)" fill="#d4af37"/>
    <path id="Path_66" data-name="Path 66" d="M53.171,5.009A48.151,48.151,0,1,0,101.322,53.16,48.164,48.164,0,0,0,53.171,5.009Zm0,92.2A44.055,44.055,0,1,1,97.215,53.16,44.057,44.057,0,0,1,53.171,97.205Z" transform="translate(0)" fill="#d4af37"/>
    <path id="Path_67" data-name="Path 67" d="M87.417,49.065a1.972,1.972,0,1,0,1.962,1.982A1.977,1.977,0,0,0,87.417,49.065Z" transform="translate(5.652 3.095)" fill="#d4af37"/>
    <circle id="Ellipse_8" data-name="Ellipse 8" cx="1.961" cy="1.961" r="1.961" transform="translate(86.328 32.037)" fill="#d4af37"/>
    <circle id="Ellipse_9" data-name="Ellipse 9" cx="1.962" cy="1.962" r="1.962" transform="translate(85.979 71.464)" fill="#d4af37"/>
    <circle id="Ellipse_10" data-name="Ellipse 10" cx="1.962" cy="1.962" r="1.962" transform="translate(17.359 71.975)" fill="#d4af37"/>
    <circle id="Ellipse_11" data-name="Ellipse 11" cx="1.961" cy="1.961" r="1.961" transform="translate(12.252 41.251)" fill="#d4af37"/>
    <circle id="Ellipse_12" data-name="Ellipse 12" cx="1.962" cy="1.962" r="1.962" transform="translate(16.337 31.689)" fill="#d4af37"/>
    <path id="Path_68" data-name="Path 68" d="M60.314,16.32a1.962,1.962,0,1,0-1.982-1.962A1.959,1.959,0,0,0,60.314,16.32Z" transform="translate(3.746 0.519)" fill="#d4af37"/>
    <circle id="Ellipse_13" data-name="Ellipse 13" cx="1.962" cy="1.962" r="1.962" transform="translate(40.567 90.105)" fill="#d4af37"/>
    <circle id="Ellipse_14" data-name="Ellipse 14" cx="1.962" cy="1.962" r="1.962" transform="translate(12.925 62.414)" fill="#d4af37"/>
    <path id="Path_69" data-name="Path 69" d="M14.744,51.35a1.977,1.977,0,0,0-1.982-1.96,1.972,1.972,0,0,0,0,3.943A2,2,0,0,0,14.744,51.35Z" transform="translate(0.409 3.118)" fill="#d4af37"/>
    <circle id="Ellipse_15" data-name="Ellipse 15" cx="1.962" cy="1.962" r="1.962" transform="translate(71.986 17.184)" fill="#d4af37"/>
    <path id="Path_70" data-name="Path 70" d="M24.428,75.062a1.971,1.971,0,1,0,0,3.943,1.971,1.971,0,0,0,0-3.943Z" transform="translate(1.226 4.921)" fill="#d4af37"/>
    <circle id="Ellipse_16" data-name="Ellipse 16" cx="1.962" cy="1.962" r="1.962" transform="translate(22.997 23.66)" fill="#d4af37"/>
    <path id="Path_71" data-name="Path 71" d="M31.757,80.979a1.944,1.944,0,0,0-1.962,1.94,1.961,1.961,0,1,0,3.922,0A1.943,1.943,0,0,0,31.757,80.979Z" transform="translate(1.742 5.336)" fill="#d4af37"/>
    <path id="Path_72" data-name="Path 72" d="M50.426,14.716a1.962,1.962,0,1,0-1.982-1.962A1.959,1.959,0,0,0,50.426,14.716Z" transform="translate(3.052 0.406)" fill="#d4af37"/>
    <path id="Path_73" data-name="Path 73" d="M40.538,16.32a1.962,1.962,0,0,0,0-3.924,1.962,1.962,0,1,0,0,3.924Z" transform="translate(2.357 0.519)" fill="#d4af37"/>
    <circle id="Ellipse_17" data-name="Ellipse 17" cx="1.962" cy="1.962" r="1.962" transform="translate(31.189 16.837)" fill="#d4af37"/>
  </g>
</svg>
