<svg id="edit" xmlns="http://www.w3.org/2000/svg" width="79.325" height="79.325" viewBox="0 0 79.325 79.325">
  <path id="Path_75" data-name="Path 75" d="M57.775,10.373,48.317.915a2.949,2.949,0,0,0-4.271,0l-5.8,5.8h0L15.672,29.289h0c-.305.305-.305.61-.61.915v.305h0L10.18,44.849a3.334,3.334,0,0,0,.61,3.051,2.77,2.77,0,0,0,2.136.915,1.121,1.121,0,0,0,.915-.305l14.339-4.882h.305c.305,0,.61-.305.915-.61h0L57.775,14.645A2.949,2.949,0,0,0,57.775,10.373Zm-6.407,2.136-1.525,1.525L44.656,8.848l1.525-1.525Zm-24.1,24.1-2.441-2.441-2.746-2.746L40.385,13.119l5.187,5.187Zm-9.458,4.271,1.22-3.661,2.441,2.441Z" transform="translate(20.634 0)" fill="#707070"/>
  <path id="Path_76" data-name="Path 76" d="M64.07,34.509a2.882,2.882,0,0,0-3.051,3.051V58.917a6.12,6.12,0,0,1-6.1,6.1H12.2a6.12,6.12,0,0,1-6.1-6.1V16.2a6.12,6.12,0,0,1,6.1-6.1H33.56a2.882,2.882,0,0,0,3.051-3.051A2.882,2.882,0,0,0,33.56,4H12.2A12.24,12.24,0,0,0,0,16.2V58.917a12.24,12.24,0,0,0,12.2,12.2H54.917a12.24,12.24,0,0,0,12.2-12.2V37.56A2.882,2.882,0,0,0,64.07,34.509Z" transform="translate(0 8.204)" fill="#707070"/>
</svg>
