<svg xmlns="http://www.w3.org/2000/svg" xmlns:xlink="http://www.w3.org/1999/xlink" width="1234" height="1594" viewBox="0 0 1234 1594">
  <defs>
    <radialGradient id="radial-gradient" cx="0.5" cy="0.5" r="0.5" gradientUnits="objectBoundingBox">
      <stop offset="0" stop-color="#ffed60"/>
      <stop offset="0.739" stop-color="#fff"/>
      <stop offset="1" stop-color="#f8e8cd"/>
    </radialGradient>
    <radialGradient id="radial-gradient-2" cx="0.5" cy="0.5" r="0.5" gradientUnits="objectBoundingBox">
      <stop offset="0" stop-color="#f8d86b"/>
      <stop offset="1" stop-color="#f4b26a"/>
    </radialGradient>
    <linearGradient id="linear-gradient" x1="0.077" y1="0.137" x2="0.809" y2="1" gradientUnits="objectBoundingBox">
      <stop offset="0" stop-color="#daa872"/>
      <stop offset="1" stop-color="#954e02"/>
    </linearGradient>
    <linearGradient id="linear-gradient-2" x1="0.169" x2="0.687" y2="1" gradientUnits="objectBoundingBox">
      <stop offset="0" stop-color="#ebb979"/>
      <stop offset="1" stop-color="#b97927"/>
    </linearGradient>
    <linearGradient id="linear-gradient-3" x1="0.281" y1="0.043" x2="0.571" y2="1" gradientUnits="objectBoundingBox">
      <stop offset="0" stop-color="#f2c387"/>
      <stop offset="1" stop-color="#e69f41"/>
    </linearGradient>
    <linearGradient id="linear-gradient-4" x1="0.5" x2="0.5" y2="1" gradientUnits="objectBoundingBox">
      <stop offset="0" stop-color="#f5c684"/>
      <stop offset="1" stop-color="#e3a042"/>
    </linearGradient>
    <linearGradient id="linear-gradient-5" x1="0.5" x2="0.5" y2="1" gradientUnits="objectBoundingBox">
      <stop offset="0" stop-color="#ffca86"/>
      <stop offset="1" stop-color="#ce9347"/>
    </linearGradient>
    <clipPath id="clip-GyzaPyramids">
      <rect width="1234" height="1594"/>
    </clipPath>
  </defs>
  <g id="GyzaPyramids" clip-path="url(#clip-GyzaPyramids)">
    <rect width="1234" height="1594" fill="#f8e8cd"/>
    <ellipse id="Ellipse_22" data-name="Ellipse 22" cx="555" cy="635.5" rx="555" ry="635.5" transform="translate(62 93)" fill="url(#radial-gradient)"/>
    <g id="Group_11" data-name="Group 11" transform="translate(-595.223 -495.262)">
      <path id="Polygon_1" data-name="Polygon 1" d="M110,0,220,957H0Z" transform="translate(1102.141 1222.292)" fill="url(#radial-gradient-2)"/>
      <path id="Polygon_2" data-name="Polygon 2" d="M109.634,0,219.268,956.133H0Z" transform="translate(1110.122 1262.441) rotate(-20)" fill="url(#radial-gradient-2)"/>
      <path id="Path_32" data-name="Path 32" d="M110.679,0,219.827,955.829,0,956.005Z" transform="translate(1128.327 1294.175) rotate(-40)" fill="url(#radial-gradient-2)"/>
      <path id="Path_31" data-name="Path 31" d="M103.753,0,220.508,967.48,0,965.985Z" transform="translate(1162.099 1313.39) rotate(-61)" fill="url(#radial-gradient-2)"/>
      <path id="Polygon_3" data-name="Polygon 3" d="M109.634,0,219.268,956.133H0Z" transform="translate(1110.143 1187.447) rotate(20)" fill="url(#radial-gradient-2)"/>
      <path id="Path_33" data-name="Path 33" d="M110.679,956.005,219.827.176,0,0Z" transform="translate(683.474 2026.518) rotate(-140)" fill="url(#radial-gradient-2)"/>
      <path id="Path_34" data-name="Path 34" d="M103.753,967.48,220.508,0,0,1.5Z" transform="matrix(-0.485, -0.875, 0.875, -0.485, 418.033, 1782.434)" fill="url(#radial-gradient-2)"/>
      <path id="Path_35" data-name="Path 35" d="M108.073,969.805,219.73,0,0,.412Z" transform="matrix(-0.174, -0.985, 0.985, -0.174, 276.379, 1498.094)" fill="url(#radial-gradient-2)"/>
      <path id="Path_36" data-name="Path 36" d="M108.073,0,219.73,969.8,0,969.393Z" transform="matrix(0.174, -0.985, 0.985, 0.174, 1192.913, 1329.689)" fill="url(#radial-gradient-2)"/>
      <path id="Polygon_4" data-name="Polygon 4" d="M109.961,0,219.921,956.542H0Z" transform="translate(1321.985 1225.804) rotate(180)" fill="url(#radial-gradient-2)"/>
      <path id="Polygon_5" data-name="Polygon 5" d="M109.634,0,219.268,956.133H0Z" transform="translate(1316.167 1260.799) rotate(-160)" fill="url(#radial-gradient-2)"/>
      <path id="Path_37" data-name="Path 37" d="M110.679,956.005,219.827.176,0,0Z" transform="translate(1742.835 421.728) rotate(40)" fill="url(#radial-gradient-2)"/>
      <path id="Path_38" data-name="Path 38" d="M103.753,967.48,220.508,0,0,1.5Z" transform="matrix(0.485, 0.875, -0.875, 0.485, 2008.277, 665.812)" fill="url(#radial-gradient-2)"/>
      <path id="Polygon_6" data-name="Polygon 6" d="M109.634,0,219.268,956.133H0Z" transform="translate(1316.187 1185.805) rotate(160)" fill="url(#radial-gradient-2)"/>
      <path id="Path_39" data-name="Path 39" d="M110.679,0,219.827,955.829,0,956.005Z" transform="translate(1297.982 1154.07) rotate(140)" fill="url(#radial-gradient-2)"/>
      <path id="Path_40" data-name="Path 40" d="M103.753,0,220.508,967.48,0,965.985Z" transform="matrix(-0.485, 0.875, -0.875, -0.485, 1264.21, 1134.856)" fill="url(#radial-gradient-2)"/>
      <path id="Path_41" data-name="Path 41" d="M108.073,0,219.73,969.8,0,969.393Z" transform="matrix(-0.174, 0.985, -0.985, -0.174, 1231.451, 1118.557)" fill="url(#radial-gradient-2)"/>
      <path id="Path_42" data-name="Path 42" d="M108.073,969.8,219.73,0,0,.412Z" transform="matrix(0.174, 0.985, -0.985, 0.174, 2147.985, 950.152)" fill="url(#radial-gradient-2)"/>
    </g>
    <path id="Path_162" data-name="Path 162" d="M4033,4097.939V3849.311l1241.618-87.937V4353H4033Z" transform="translate(-4033 -2759)" fill="#6e401b" stroke="#707070" stroke-width="1"/>
    <g id="Group_48" data-name="Group 48" transform="translate(-40.845 -115)">
      <path id="Path_172" data-name="Path 172" d="M4034.107,3998.639h1264.75l-1280.028,54.685H5298.857l-1280.028,56.006,1296.711,12.646-1296.711,43.986,1296.711,18.07-1281.433,39.1,1264.75,13.2-1280.028,28.756L5315.54,4282.3l-1296.711,12.332" transform="translate(-4003 -2774)" fill="none" stroke="#8b5021" stroke-width="1"/>
      <path id="Path_173" data-name="Path 173" d="M14.651,0H1227.571L0,54.685H1227.571L0,110.69l1243.57,12.646L0,167.322l1243.57,18.07L14.651,224.487l1212.919,13.2L0,266.445l1243.57,17.212L0,295.99" transform="translate(1259.399 1535.629) rotate(180)" fill="none" stroke="#8b5021" stroke-width="1"/>
      <path id="Path_266" data-name="Path 266" d="M15.278,0h1264.75L0,54.685H1280.028L0,110.69l1296.71,12.646L0,167.322l1296.71,18.07L15.278,224.487l1264.75,13.2L0,266.445l1296.71,17.212L0,295.99" transform="translate(1312.54 1535.629) rotate(180)" fill="none" stroke="#8b5021" stroke-width="1"/>
      <path id="Path_359" data-name="Path 359" d="M4034.107,3998.639h1264.75L4018.83,4053.323H5298.858L4018.83,4109.329l1296.711,12.646L4018.83,4165.961l1296.711,18.07-1281.433,39.1,1264.75,13.2L4018.83,4265.084,5315.541,4282.3,4018.83,4294.628" transform="translate(-4003 -2478)" fill="none" stroke="#8b5021" stroke-width="1"/>
      <path id="Path_360" data-name="Path 360" d="M15.392,0H1289.651L0,54.685H1289.651L0,110.69l1306.459,12.646L0,167.322l1306.459,18.07L15.392,224.487l1274.259,13.2L0,266.445l1306.459,17.212L0,295.99" transform="translate(1322.289 1831.629) rotate(180)" fill="none" stroke="#8b5021" stroke-width="1"/>
    </g>
    <g id="Group_47" data-name="Group 47" transform="translate(-4163.062 302.965)">
      <path id="Path_169" data-name="Path 169" d="M7326.984,1846.145l34.557-111.952,337.451,306.935H7449.127Z" transform="translate(-2255.039 -1236.548)" fill="url(#linear-gradient)"/>
      <path id="Path_170" data-name="Path 170" d="M7253.594,1808.172l92.212-73.619-43.63,139.151-42.958-57.945-5.625-7.587" transform="translate(-2238.815 -1236.628)" fill="#8f6544"/>
      <path id="Path_171" data-name="Path 171" d="M6363.391,1965.265l133.585,132.24L6686.3,1639.393Z" transform="translate(-2042.026 -1215.592)" fill="#d89e56"/>
      <path id="Path_167" data-name="Path 167" d="M6907.871,1724.818l75.753-210.239,529.8,512.5H7119.464Z" transform="translate(-2162.388 -1188)" opacity="0.997" fill="url(#linear-gradient-2)"/>
      <path id="Path_168" data-name="Path 168" d="M6815.721,1653.288,6963.068,1515.2l-78.234,216.986Z" transform="translate(-2142.018 -1188.137)" fill="#c39663" opacity="0.997"/>
      <path id="Path_358" data-name="Path 358" d="M4826.725,459.133s33.971-20.6,62.988-26.479,40.448-1.54,53.08,2.951,53.818,18.2,91.38,25.022,52.689,9.02,58.866,2.253,3.847-12.925-3.874-20.525S4969.128,326.79,4969.128,326.79L4827.664,459.133" transform="translate(-148.346 -0.047)" fill="#a26e2c" opacity="0.435"/>
      <path id="Path_164" data-name="Path 164" d="M6477.778,2091.96l233.949-450.813,498.086,450.813H6477.778Z" transform="translate(-2067.312 -1217.537)" fill="url(#linear-gradient-3)"/>
      <g id="Group_42" data-name="Group 42" transform="translate(4494.021 729.48)">
        <path id="Path_165" data-name="Path 165" d="M6701.472,2198.115l89.445-173.293,165.359,173.293Z" transform="translate(-6610.783 -2024.822)" fill="#fcc674"/>
        <path id="Path_166" data-name="Path 166" d="M6764.728,2025.609l-179.682,143.755,90.9,28.216Z" transform="translate(-6585.046 -2024.996)" fill="#b67b2e"/>
      </g>
      <g id="Group_45" data-name="Group 45" transform="translate(4138.046 717.017)">
        <path id="Path_165-2" data-name="Path 165" d="M6701,2198.115l89.918-173.293,165.359,173.293Z" transform="translate(-6610.783 -2024.822)" fill="url(#linear-gradient-4)"/>
        <path id="Path_166-2" data-name="Path 166" d="M6764.728,2025.609l-179.682,143.755,91.018,28.875Z" transform="translate(-6585.046 -2024.996)" fill="#d89e56"/>
      </g>
      <g id="Group_46" data-name="Group 46" transform="translate(4839.87 724.027)">
        <path id="Path_165-3" data-name="Path 165" d="M6701.473,2205.125l93.063-180.3,172.049,180.3Z" transform="translate(-6607.115 -2024.822)" fill="url(#linear-gradient-5)"/>
        <path id="Path_166-3" data-name="Path 166" d="M6772,2025.609,6585.046,2175.18l94.58,29.357Z" transform="translate(-6585.046 -2024.971)" fill="#c39663"/>
      </g>
    </g>
  </g>
</svg>
