<svg xmlns="http://www.w3.org/2000/svg" width="120.715" height="98.544" viewBox="0 0 120.715 98.544">
  <g id="pyramids" transform="translate(-5.003 -10.953)">
    <path id="Path_61" data-name="Path 61" d="M118.535,78.43,76.525,23.143c-.007-.009-.017-.014-.024-.022a1.52,1.52,0,0,0-.294-.28c-.018-.014-.037-.025-.055-.037a1.652,1.652,0,0,0-.334-.177c-.008,0-.018,0-.028-.006a1.8,1.8,0,0,0-.478-.1c-.007,0-.012,0-.019,0a1.853,1.853,0,0,0-.5.036l-.015,0c-.046.01-.086.035-.132.049a1.749,1.749,0,0,0-.335.132,1.625,1.625,0,0,0-.132.1,1.608,1.608,0,0,0-.252.207c-.011.012-.028.019-.039.031L21.741,82.736a1.359,1.359,0,0,0-.323,1.177,1.478,1.478,0,0,0,.767,1l39.942,21.53a1.837,1.837,0,0,0,.209.081c.048.019.094.041.144.056a1.892,1.892,0,0,0,.486.071,1.784,1.784,0,0,0,.334-.034c.036-.006.071-.019.107-.027.053-.014.105-.022.155-.04l53.873-23.81a3.2,3.2,0,0,0,1.917-1.9A2.926,2.926,0,0,0,118.535,78.43ZM63.562,103.8,75.294,27.655l40.485,52.7Z" transform="translate(6.31 2.85)" fill="#d59200"/>
    <path id="Path_62" data-name="Path 62" d="M46.71,11.587c-.006-.007-.015-.012-.021-.02a1.572,1.572,0,0,0-.291-.278c-.019-.015-.039-.027-.06-.041a1.65,1.65,0,0,0-.323-.173c-.01,0-.021,0-.03-.006a1.721,1.721,0,0,0-.474-.107c-.007,0-.014,0-.021,0A1.819,1.819,0,0,0,45,10.99c-.006,0-.011,0-.018.006-.051.011-.1.036-.147.052a1.685,1.685,0,0,0-.321.126,1.455,1.455,0,0,0-.139.1,1.572,1.572,0,0,0-.249.2c-.014.014-.032.022-.044.036L5.353,55.821a1.363,1.363,0,0,0-.325,1.163,1.478,1.478,0,0,0,.745.995l28.2,15.848a.35.35,0,0,0,.431-.07l2.492-2.911a2.391,2.391,0,0,0,.539-1.149L46.359,16.3,64.212,39.526a.349.349,0,0,0,.521.019l1.724-1.9a.271.271,0,0,0,.015-.353Z" transform="translate(0 0)" fill="#d59200"/>
  </g>
</svg>
