<svg id="room-blue" xmlns="http://www.w3.org/2000/svg" width="276" height="347" viewBox="0 0 276 347">
  <path id="Path_85" data-name="Path 85" d="M15,0H261a15,15,0,0,1,15,15V332a15,15,0,0,1-15,15H15A15,15,0,0,1,0,332V15A15,15,0,0,1,15,0Z" fill="#1c54a3"/>
  <path id="Intersection_2" data-name="Intersection 2" d="M2115.244,141.18a.843.843,0,0,1-.278-1.14,42.018,42.018,0,0,1,11.349-11.614c2.106-1.492,4.029-2.745,5.712-3.779-2.905-1.656-4.658-2.421-4.69-2.434a.838.838,0,0,1-.433-1.087.808.808,0,0,1,1.063-.44,56.608,56.608,0,0,1,5.684,2.989q.439-.257.85-.491v2.929q-.436-.268-.851-.516c-1.841,1.1-4.012,2.493-6.412,4.194a41.173,41.173,0,0,0-10.883,11.109.805.805,0,0,1-.694.4A.8.8,0,0,1,2115.244,141.18Zm-10.425-17.929a17.866,17.866,0,0,1,8.089-6.02,17.389,17.389,0,0,1,9.994.136,17.868,17.868,0,0,1-8.086,6.012,14.834,14.834,0,0,1-4.587.691A18.061,18.061,0,0,1,2104.818,123.251Zm19.265-6a18.171,18.171,0,0,1-5.927-8.239,17.461,17.461,0,0,1,9.568,2.977,18.2,18.2,0,0,1,5.926,8.238h-.079A17.457,17.457,0,0,1,2124.083,117.247Zm-35.074-2.791a15.568,15.568,0,0,1,18.938-1.236,17.587,17.587,0,0,1-9.267,3.836c-.286.019-.571.028-.851.028A17.816,17.816,0,0,1,2089.009,114.457Zm18.35-3.728a18.44,18.44,0,0,1-4.577-9.1,17.609,17.609,0,0,1,8.986,4.49,18.342,18.342,0,0,1,4.568,9.1A17.547,17.547,0,0,1,2107.359,110.729Zm-14.867-8.667a18.663,18.663,0,0,1-1.385-10.135,17.886,17.886,0,0,1,7.035,7.275,18.589,18.589,0,0,1,1.385,10.136A17.954,17.954,0,0,1,2092.492,102.062Zm-7.01,5.876a17.746,17.746,0,0,1-8.357-5.623,17.421,17.421,0,0,1,9.98-.611,17.823,17.823,0,0,1,8.352,5.625,18.212,18.212,0,0,1-6.177,1.1A14.409,14.409,0,0,1,2085.482,107.937Zm-3.216-16.865a18.547,18.547,0,0,1,1.4-10.137,18.272,18.272,0,0,1,4.789,8.985,18.578,18.578,0,0,1-1.4,10.133A18.326,18.326,0,0,1,2082.266,91.072Zm-9.975-.871a18.223,18.223,0,0,1-5.856-8.295,17.444,17.444,0,0,1,9.539,3.067,18.225,18.225,0,0,1,5.857,8.293h-.034A17.4,17.4,0,0,1,2072.291,90.2Zm4.167-16.3a18.188,18.188,0,0,1,5.494-8.552,18.614,18.614,0,0,1,.6,10.213,18.185,18.185,0,0,1-5.493,8.556A18.628,18.628,0,0,1,2076.458,73.9Zm-9.4-4.5a18.608,18.608,0,0,1-2.212-9.987,17.88,17.88,0,0,1,7.6,6.649,18.567,18.567,0,0,1,2.216,9.973A17.861,17.861,0,0,1,2067.06,69.4Zm9.966-15.253a17.654,17.654,0,0,1,8.335-5.644,18.5,18.5,0,0,1-3.382,9.63,17.69,17.69,0,0,1-8.341,5.641A18.473,18.473,0,0,1,2077.027,54.145Zm-5.474-9.921a18.477,18.477,0,0,1,2.969-9.776,18.463,18.463,0,0,1,3.332,9.655,18.476,18.476,0,0,1-2.966,9.769A18.456,18.456,0,0,1,2071.553,44.224Zm7.149-.733a18.159,18.159,0,0,1,6.791-7.521,17.4,17.4,0,0,1,9.825-1.865,18.112,18.112,0,0,1-6.779,7.515,16.766,16.766,0,0,1-8.09,1.965A14.09,14.09,0,0,1,2078.7,43.492Zm3.487-17.187a18.144,18.144,0,0,1,5.958-8.223,18.6,18.6,0,0,1,.031,10.233,18.112,18.112,0,0,1-5.959,8.219A18.645,18.645,0,0,1,2082.189,26.3Zm6.895,2.372a17.661,17.661,0,0,1,8.953-4.563,17.432,17.432,0,0,1,9.838,1.828,17.692,17.692,0,0,1-8.954,4.559,13.543,13.543,0,0,1-1.95.138A18.064,18.064,0,0,1,2089.084,28.677Zm9.448-14.984a17.782,17.782,0,0,1,8.235-5.806,18.548,18.548,0,0,1-3.21,9.687,17.721,17.721,0,0,1-8.24,5.809A18.5,18.5,0,0,1,2098.532,13.692Z" transform="translate(-1859 181)" fill="#2f6fcc"/>
</svg>
