<svg id="Group_15" data-name="Group 15" xmlns="http://www.w3.org/2000/svg" width="98.889" height="96.415" viewBox="0 0 98.889 96.415">
  <g id="Group_2" data-name="Group 2" transform="translate(11.281 9.034)">
    <path id="Path_39" data-name="Path 39" d="M66.129,80.171,54.61,63.951a10.24,10.24,0,0,0,2.669-6.922V48.421A1.727,1.727,0,0,0,55.557,46.7H52.113V38.744L73.085,36.3l-.6-3.392-.6-3.392L69.5,16.034l-.6-3.392L68.3,9.25,11.152,22.8a1.715,1.715,0,0,0-1.291,1.963l.293,1.687,1.791,10.176.6,3.392.293,1.687a1.7,1.7,0,0,0,1.687,1.429.838.838,0,0,0,.207-.017L41.783,39.95V46.7H38.339a1.727,1.727,0,0,0-1.722,1.722V57.03A10.257,10.257,0,0,0,39.3,63.951L27.836,80.085a.526.526,0,0,0-.086.12L18,93.91a1.732,1.732,0,0,0,.4,2.411,1.794,1.794,0,0,0,1,.31,1.77,1.77,0,0,0,1.412-.723l9.28-13.051H45.23V94.909a1.722,1.722,0,1,0,3.444,0V82.857H63.822L73.1,95.908a1.715,1.715,0,0,0,1.395.723,1.754,1.754,0,0,0,1-.31,1.735,1.735,0,0,0,.413-2.411ZM50.392,57.03a3.444,3.444,0,1,1-3.444-3.444A3.443,3.443,0,0,1,50.392,57.03ZM32.537,79.413l9.47-13.327a10.239,10.239,0,0,0,3.22,1.119h0V79.413Zm16.137,0V67.2a10.335,10.335,0,0,0,3.233-1.118l9.47,13.327Z" transform="translate(-9.835 -9.25)" fill="#11559a"/>
  </g>
  <g id="Group_3" data-name="Group 3" transform="translate(72.514 0)">
    <path id="Path_40" data-name="Path 40" d="M65.77,5.427a1.708,1.708,0,0,0-2-1.395L46.813,7.011a1.772,1.772,0,0,0-1.1.706,1.84,1.84,0,0,0-.31,1.119.592.592,0,0,0,.017.172l.568,3.237.6,3.392L50.841,39.69l.568,3.237a.547.547,0,0,0,.052.155A1.68,1.68,0,0,0,53.1,44.339a1.576,1.576,0,0,0,.293-.017l16.96-3a1.74,1.74,0,0,0,1.119-.706,1.721,1.721,0,0,0,.275-1.291Z" transform="translate(-45.399 -4.003)" fill="#11559a"/>
  </g>
  <g id="Group_4" data-name="Group 4" transform="translate(0 26.837)">
    <path id="Path_41" data-name="Path 41" d="M12.093,22.982l-.6-3.392L4.707,20.8a1.692,1.692,0,0,0-1.395,1.98L5.1,32.951a1.675,1.675,0,0,0,.706,1.119,1.7,1.7,0,0,0,.981.31,1.9,1.9,0,0,0,.31-.034l6.784-1.188-.6-3.392Z" transform="translate(-3.283 -19.59)" fill="#11559a"/>
  </g>
</svg>
