<svg xmlns="http://www.w3.org/2000/svg" xmlns:xlink="http://www.w3.org/1999/xlink" width="1234" height="1594" viewBox="0 0 1234 1594">
  <defs>
    <radialGradient id="radial-gradient" cx="0.5" cy="0.5" r="0.5" gradientUnits="objectBoundingBox">
      <stop offset="0" stop-color="#fff"/>
      <stop offset="0.433" stop-color="#fff"/>
      <stop offset="1" stop-color="#f8e8cd"/>
    </radialGradient>
    <radialGradient id="radial-gradient-2" cx="0.5" cy="0.5" r="0.5" gradientUnits="objectBoundingBox">
      <stop offset="0" stop-color="#ffe1c1"/>
      <stop offset="1" stop-color="#f4b26a"/>
    </radialGradient>
    <linearGradient id="linear-gradient" y1="0.5" x2="1" y2="0.5" gradientUnits="objectBoundingBox">
      <stop offset="0" stop-color="#624428"/>
      <stop offset="0.546" stop-color="#95602c"/>
      <stop offset="1" stop-color="#7c5531"/>
    </linearGradient>
    <clipPath id="clip-path">
      <rect width="160.826" height="561.841" fill="none"/>
    </clipPath>
    <linearGradient id="linear-gradient-3" y1="0.49" x2="1" y2="0.488" gradientUnits="objectBoundingBox">
      <stop offset="0" stop-color="#ecd0b9"/>
      <stop offset="1" stop-color="#ddb490"/>
    </linearGradient>
    <linearGradient id="linear-gradient-9" x1="0.281" y1="0.043" x2="0.571" y2="1" gradientUnits="objectBoundingBox">
      <stop offset="0" stop-color="#f2c387"/>
      <stop offset="1" stop-color="#e69f41"/>
    </linearGradient>
    <clipPath id="clip-path-2">
      <rect width="108.213" height="378.038" fill="none"/>
    </clipPath>
    <linearGradient id="linear-gradient-16" y1="0.5" x2="1" y2="0.5" gradientUnits="objectBoundingBox">
      <stop offset="0" stop-color="#b17d4c"/>
      <stop offset="0.502" stop-color="#dea869"/>
      <stop offset="1" stop-color="#b07c4a"/>
    </linearGradient>
    <linearGradient id="linear-gradient-17" y1="0.5" x2="1" y2="0.5" gradientUnits="objectBoundingBox">
      <stop offset="0" stop-color="#b27e4d"/>
      <stop offset="0.5" stop-color="#dea869"/>
      <stop offset="1" stop-color="#af7b49"/>
    </linearGradient>
    <clipPath id="clip-path-3">
      <rect width="169.826" height="561.841" fill="none"/>
    </clipPath>
    <linearGradient id="linear-gradient-18" y1="0.49" x2="1" y2="0.488" gradientUnits="objectBoundingBox">
      <stop offset="0" stop-color="#ecd0b9"/>
      <stop offset="1" stop-color="#f8e8cd"/>
    </linearGradient>
    <linearGradient id="linear-gradient-24" x1="0.5" x2="0.5" y2="1" gradientUnits="objectBoundingBox">
      <stop offset="0" stop-color="#c09363"/>
      <stop offset="1" stop-color="#856135"/>
    </linearGradient>
    <linearGradient id="linear-gradient-25" x1="0.5" x2="0.5" y2="0.539" gradientUnits="objectBoundingBox">
      <stop offset="0" stop-color="#7b522a"/>
      <stop offset="1" stop-color="#a27046"/>
    </linearGradient>
    <linearGradient id="linear-gradient-26" x1="0.5" x2="0.5" y2="1" gradientUnits="objectBoundingBox">
      <stop offset="0" stop-color="#915323"/>
      <stop offset="1" stop-color="#d9b08a"/>
    </linearGradient>
    <linearGradient id="linear-gradient-27" x1="0.746" y1="0.117" x2="0.424" y2="0.903" gradientUnits="objectBoundingBox">
      <stop offset="0" stop-color="#ad8450"/>
      <stop offset="1" stop-color="#6e401b"/>
    </linearGradient>
    <linearGradient id="linear-gradient-28" x1="0.5" x2="0.5" y2="1" gradientUnits="objectBoundingBox">
      <stop offset="0" stop-color="#886439"/>
      <stop offset="1" stop-color="#6f401b"/>
    </linearGradient>
    <linearGradient id="linear-gradient-32" x1="0.254" y1="0.117" x2="0.576" y2="0.903" xlink:href="#linear-gradient-27"/>
    <clipPath id="clip-Sphinx">
      <rect width="1234" height="1594"/>
    </clipPath>
  </defs>
  <g id="Sphinx" clip-path="url(#clip-Sphinx)">
    <rect width="1234" height="1594" fill="#f8e8cd"/>
    <g id="Group_121" data-name="Group 121">
      <ellipse id="Ellipse_22" data-name="Ellipse 22" cx="555" cy="635.5" rx="555" ry="635.5" transform="translate(62 99)" fill="url(#radial-gradient)"/>
      <g id="Group_11" data-name="Group 11" transform="translate(-672.004 -501.988)">
        <path id="Polygon_1" data-name="Polygon 1" d="M119.5,0,239,1032H0Z" transform="translate(1169.004 1296.989)" fill="url(#radial-gradient-2)"/>
        <path id="Polygon_2" data-name="Polygon 2" d="M118.25,0,236.5,1031.276H0Z" transform="translate(1178.644 1340.494) rotate(-20)" fill="url(#radial-gradient-2)"/>
        <path id="Path_32" data-name="Path 32" d="M119.377,0,237.1,1030.947l-237.1.19Z" transform="translate(1198.28 1374.723) rotate(-40)" fill="url(#radial-gradient-2)"/>
        <path id="Path_31" data-name="Path 31" d="M111.907,0,237.838,1043.514,0,1041.9Z" transform="translate(1234.707 1395.447) rotate(-61)" fill="url(#radial-gradient-2)"/>
        <path id="Polygon_3" data-name="Polygon 3" d="M118.25,0,236.5,1031.276H0Z" transform="translate(1178.666 1259.606) rotate(20)" fill="url(#radial-gradient-2)"/>
        <path id="Path_33" data-name="Path 33" d="M119.377,1031.137,237.1.19,0,0Z" transform="translate(718.466 2164.62) rotate(-140)" fill="url(#radial-gradient-2)"/>
        <path id="Path_34" data-name="Path 34" d="M111.907,1043.514,237.838,0,0,1.613Z" transform="matrix(-0.485, -0.875, 0.875, -0.485, 432.164, 1901.353)" fill="url(#radial-gradient-2)"/>
        <path id="Path_35" data-name="Path 35" d="M116.566,1046.022,237,0,0,.445Z" transform="matrix(-0.174, -0.985, 0.985, -0.174, 279.378, 1594.667)" fill="url(#radial-gradient-2)"/>
        <path id="Path_36" data-name="Path 36" d="M116.567,0,237,1046.021l-237-.445Z" transform="matrix(0.174, -0.985, 0.985, 0.174, 1267.942, 1413.027)" fill="url(#radial-gradient-2)"/>
        <path id="Polygon_4" data-name="Polygon 4" d="M118.6,0,237.2,1031.716H0Z" transform="translate(1407.157 1300.978) rotate(180)" fill="url(#radial-gradient-2)"/>
        <path id="Polygon_5" data-name="Polygon 5" d="M118.25,0,236.5,1031.276H0Z" transform="translate(1400.882 1338.724) rotate(-160)" fill="url(#radial-gradient-2)"/>
        <path id="Path_37" data-name="Path 37" d="M119.377,1031.137,237.1.19,0,0Z" transform="translate(1861.082 433.71) rotate(40)" fill="url(#radial-gradient-2)"/>
        <path id="Path_38" data-name="Path 38" d="M111.907,1043.514,237.838,0,0,1.613Z" transform="matrix(0.485, 0.875, -0.875, 0.485, 2147.384, 696.977)" fill="url(#radial-gradient-2)"/>
        <path id="Polygon_6" data-name="Polygon 6" d="M118.25,0,236.5,1031.276H0Z" transform="translate(1400.904 1257.836) rotate(160)" fill="url(#radial-gradient-2)"/>
        <path id="Path_39" data-name="Path 39" d="M119.377,0,237.1,1030.947l-237.1.19Z" transform="translate(1381.268 1223.607) rotate(140)" fill="url(#radial-gradient-2)"/>
        <path id="Path_40" data-name="Path 40" d="M111.907,0,237.838,1043.514,0,1041.9Z" transform="matrix(-0.485, 0.875, -0.875, -0.485, 1344.842, 1202.883)" fill="url(#radial-gradient-2)"/>
        <path id="Path_41" data-name="Path 41" d="M116.566,0,237,1046.021l-237-.444Z" transform="matrix(-0.174, 0.985, -0.985, -0.174, 1309.508, 1185.303)" fill="url(#radial-gradient-2)"/>
        <path id="Path_42" data-name="Path 42" d="M116.567,1046.021,237,0,0,.445Z" transform="matrix(0.174, 0.985, -0.985, 0.174, 2298.072, 1003.663)" fill="url(#radial-gradient-2)"/>
      </g>
      <g id="Group_40" data-name="Group 40" transform="translate(-2069 39.264)">
        <rect id="Rectangle_20" data-name="Rectangle 20" width="192" height="583" transform="translate(2154 1061.736)" fill="#95602c"/>
        <rect id="Rectangle_23" data-name="Rectangle 23" width="272" height="52" transform="translate(2114 969.736)" fill="url(#linear-gradient)"/>
        <rect id="Rectangle_24" data-name="Rectangle 24" width="232" height="52" transform="translate(2135 1018.736)" fill="url(#linear-gradient)"/>
        <g id="Repeat_Grid_5" data-name="Repeat Grid 5" transform="translate(2168.99 1082.895)" clip-path="url(#clip-path)">
          <g transform="translate(-2151.673 -1045.962)">
            <path id="Path_161" data-name="Path 161" d="M4149.773,2768.017l-.1-505.1s.051-7.132,0-14.225,4.852-10.73,9.639-10.73,9.367,2.887,9.51,9.009,0,15.946,0,15.946l-.088,505.1Z" transform="translate(-1998 -1192)" fill="url(#linear-gradient-3)"/>
          </g>
          <g transform="translate(-2122.673 -1045.962)">
            <path id="Path_161-2" data-name="Path 161" d="M4149.773,2768.017l-.1-505.1s.051-7.132,0-14.225,4.852-10.73,9.639-10.73,9.367,2.887,9.51,9.009,0,15.946,0,15.946l-.088,505.1Z" transform="translate(-1998 -1192)" fill="url(#linear-gradient-3)"/>
          </g>
          <g transform="translate(-2093.673 -1045.962)">
            <path id="Path_161-3" data-name="Path 161" d="M4149.773,2768.017l-.1-505.1s.051-7.132,0-14.225,4.852-10.73,9.639-10.73,9.367,2.887,9.51,9.009,0,15.946,0,15.946l-.088,505.1Z" transform="translate(-1998 -1192)" fill="url(#linear-gradient-3)"/>
          </g>
          <g transform="translate(-2064.673 -1045.962)">
            <path id="Path_161-4" data-name="Path 161" d="M4149.773,2768.017l-.1-505.1s.051-7.132,0-14.225,4.852-10.73,9.639-10.73,9.367,2.887,9.51,9.009,0,15.946,0,15.946l-.088,505.1Z" transform="translate(-1998 -1192)" fill="url(#linear-gradient-3)"/>
          </g>
          <g transform="translate(-2035.673 -1045.962)">
            <path id="Path_161-5" data-name="Path 161" d="M4149.773,2768.017l-.1-505.1s.051-7.132,0-14.225,4.852-10.73,9.639-10.73,9.367,2.887,9.51,9.009,0,15.946,0,15.946l-.088,505.1Z" transform="translate(-1998 -1192)" fill="url(#linear-gradient-3)"/>
          </g>
          <g transform="translate(-2006.673 -1045.962)">
            <path id="Path_161-6" data-name="Path 161" d="M4149.773,2768.017l-.1-505.1s.051-7.132,0-14.225,4.852-10.73,9.639-10.73,9.367,2.887,9.51,9.009,0,15.946,0,15.946l-.088,505.1Z" transform="translate(-1998 -1192)" fill="url(#linear-gradient-3)"/>
          </g>
        </g>
      </g>
      <path id="Path_171" data-name="Path 171" d="M6363.391,2011.2l152.415,150.881,216.012-522.688Z" transform="translate(-5669.654 -891.363)" fill="#d89e56"/>
      <path id="Path_164" data-name="Path 164" d="M6477.778,2155.508l266.927-514.361L7313,2155.508H6477.778Z" transform="translate(-5682.381 -893.336)" fill="url(#linear-gradient-9)"/>
      <g id="Group_38" data-name="Group 38" transform="translate(-1084 260)">
        <rect id="Rectangle_20-2" data-name="Rectangle 20" width="129" height="392" transform="translate(2141 1032)" fill="#95602c"/>
        <rect id="Rectangle_23-2" data-name="Rectangle 23" width="183" height="35" transform="translate(2114 970)" fill="url(#linear-gradient)"/>
        <rect id="Rectangle_24-2" data-name="Rectangle 24" width="156" height="35" transform="translate(2128 1003)" fill="url(#linear-gradient)"/>
        <g id="Repeat_Grid_5-2" data-name="Repeat Grid 5" transform="translate(2151 1045.962)" clip-path="url(#clip-path-2)">
          <g transform="translate(-2151.673 -1045.962)">
            <path id="Path_161-7" data-name="Path 161" d="M4149.674,2616V2262.917s.051-7.132,0-14.225,4.852-10.73,9.639-10.73,9.367,2.887,9.51,9.009,0,15.946,0,15.946V2616Z" transform="translate(-1998 -1192)" fill="url(#linear-gradient-3)"/>
          </g>
          <g transform="translate(-2122.673 -1045.962)">
            <path id="Path_161-8" data-name="Path 161" d="M4149.674,2616V2262.917s.051-7.132,0-14.225,4.852-10.73,9.639-10.73,9.367,2.887,9.51,9.009,0,15.946,0,15.946V2616Z" transform="translate(-1998 -1192)" fill="url(#linear-gradient-3)"/>
          </g>
          <g transform="translate(-2093.673 -1045.962)">
            <path id="Path_161-9" data-name="Path 161" d="M4149.674,2616V2262.917s.051-7.132,0-14.225,4.852-10.73,9.639-10.73,9.367,2.887,9.51,9.009,0,15.946,0,15.946V2616Z" transform="translate(-1998 -1192)" fill="url(#linear-gradient-3)"/>
          </g>
          <g transform="translate(-2064.673 -1045.962)">
            <path id="Path_161-10" data-name="Path 161" d="M4149.674,2616V2262.917s.051-7.132,0-14.225,4.852-10.73,9.639-10.73,9.367,2.887,9.51,9.009,0,15.946,0,15.946V2616Z" transform="translate(-1998 -1192)" fill="url(#linear-gradient-3)"/>
          </g>
        </g>
      </g>
      <g id="Group_39" data-name="Group 39" transform="translate(-1309 -50.736)">
        <rect id="Rectangle_20-3" data-name="Rectangle 20" width="192" height="583" transform="translate(2154 1061.736)" fill="#b07c4a"/>
        <rect id="Rectangle_23-3" data-name="Rectangle 23" width="272" height="52" transform="translate(2114 969.736)" fill="url(#linear-gradient-16)"/>
        <rect id="Rectangle_24-3" data-name="Rectangle 24" width="232" height="52" transform="translate(2135 1018.736)" fill="url(#linear-gradient-17)"/>
        <g id="Repeat_Grid_5-3" data-name="Repeat Grid 5" transform="translate(2167.99 1082.895)" clip-path="url(#clip-path-3)">
          <g transform="translate(-2151.673 -1045.962)">
            <path id="Path_161-11" data-name="Path 161" d="M4149.773,2768.017l-.1-505.1s.051-7.132,0-14.225,4.852-10.73,9.639-10.73,9.367,2.887,9.51,9.009,0,15.946,0,15.946l-.088,505.1Z" transform="translate(-1998 -1192)" fill="url(#linear-gradient-18)"/>
          </g>
          <g transform="translate(-2122.673 -1045.962)">
            <path id="Path_161-12" data-name="Path 161" d="M4149.773,2768.017l-.1-505.1s.051-7.132,0-14.225,4.852-10.73,9.639-10.73,9.367,2.887,9.51,9.009,0,15.946,0,15.946l-.088,505.1Z" transform="translate(-1998 -1192)" fill="url(#linear-gradient-18)"/>
          </g>
          <g transform="translate(-2093.673 -1045.962)">
            <path id="Path_161-13" data-name="Path 161" d="M4149.773,2768.017l-.1-505.1s.051-7.132,0-14.225,4.852-10.73,9.639-10.73,9.367,2.887,9.51,9.009,0,15.946,0,15.946l-.088,505.1Z" transform="translate(-1998 -1192)" fill="url(#linear-gradient-18)"/>
          </g>
          <g transform="translate(-2064.673 -1045.962)">
            <path id="Path_161-14" data-name="Path 161" d="M4149.773,2768.017l-.1-505.1s.051-7.132,0-14.225,4.852-10.73,9.639-10.73,9.367,2.887,9.51,9.009,0,15.946,0,15.946l-.088,505.1Z" transform="translate(-1998 -1192)" fill="url(#linear-gradient-18)"/>
          </g>
          <g transform="translate(-2035.673 -1045.962)">
            <path id="Path_161-15" data-name="Path 161" d="M4149.773,2768.017l-.1-505.1s.051-7.132,0-14.225,4.852-10.73,9.639-10.73,9.367,2.887,9.51,9.009,0,15.946,0,15.946l-.088,505.1Z" transform="translate(-1998 -1192)" fill="url(#linear-gradient-18)"/>
          </g>
          <g transform="translate(-2006.673 -1045.962)">
            <path id="Path_161-16" data-name="Path 161" d="M4149.773,2768.017l-.1-505.1s.051-7.132,0-14.225,4.852-10.73,9.639-10.73,9.367,2.887,9.51,9.009,0,15.946,0,15.946l-.088,505.1Z" transform="translate(-1998 -1192)" fill="url(#linear-gradient-18)"/>
          </g>
        </g>
      </g>
      <g id="Group_41" data-name="Group 41" transform="translate(238.355 236)">
        <g id="Group_34" data-name="Group 34">
          <path id="Path_132" data-name="Path 132" d="M2729.821,1572.627v287.518l64.677-33.406,46.7-63.432,29.271-138.362-53.824-30.2Z" transform="translate(-2353.874 -1188)" stroke="#707070" stroke-width="1" fill="url(#linear-gradient-24)"/>
          <path id="Path_133" data-name="Path 133" d="M2868.857,1862.605s20.56,33.28,17.731,50.514-26.317,111.3-34.607,168.5c-6.864,47.363-17.755,150.691-20.879,189.164-.621,7.641,52.127-11.691,63.916,57.164,3.831,22.378,4.213,40.741,5.618,96.261s-17.816,112.666-22.378,122c-22.955,46.946-110.081,6.441-144.588,11.492-17.137,2.509-118.7.645-150.188,0-6.24-.128,0-27.072,0-27.072v-85.958l-.723-379.095,73.842-49.763,9.567,71.024,43.371,39.752,63.556,15.237,40.966-23.238,26.7-54.234-26.7-48.54,26.7-65.637Z" transform="translate(-2210.939 -1189)" fill="#6e401b"/>
          <path id="Path_134" data-name="Path 134" d="M2568.35,1435.159v152.115l131.314,29.92,32.737-69.265,51.924,53.572,36.018,73.128,14.437,49.751,3.981,80.467-12,84.714,42.736-121.73-10.833-87.051-38.324-110.97-45.122-58.3-92.281-43.8-96.559-32.558Z" transform="translate(-2191.435 -1188)" fill="url(#linear-gradient-25)"/>
          <path id="Path_135" data-name="Path 135" d="M2780.252,1582.445l50.056,66.824,33.342,91.146,8.509,108.184-8.509,39.892-33.342,99.993-10.468,25.733,22.91,41.968-7.862,41.831-29,28.572-43.435,10.194-45.478-10.194-33.527-41.163-14.284-65.119-67.033,12.257,5.051-183.964h36.43l67.053-85.4,33.12-120.51-5.1-45.233,19.492-43.5Z" transform="translate(-2227.878 -1188)" fill="url(#linear-gradient-26)"/>
          <path id="Path_136" data-name="Path 136" d="M2791,1866.292s16.615,29.593,13.948,46.827-24.81,111.3-32.625,168.5-19.715,184.194-18.981,191.306c.073.709,22.53,7.745,31.2,24.439,4.552,8.766,3.951,28.678-4.074,33.156-22.732,12.685-68.386,28.393-86.609,29.169-15.6.664-65.2-5.546-78.925-34.729-10.583-22.494,12.638-69.465,12.638-69.465l-30.424-113.675-12.209-38.7.963-3.809,11.245-12.475,40.888,39.752,59.917,15.237,38.621-23.238,25.17-54.234-25.17-48.54,25.17-65.637Z" transform="translate(-2142.666 -1189)" fill="url(#linear-gradient-27)"/>
          <path id="Path_137" data-name="Path 137" d="M2602.947,1607.267c3.687-29.559-16.788-28.657-3.081-50.618,23-36.846,45.639-14.392,64.939,6.307s52.174,73.718,66.766,146.759-8.4,145.406-8.4,145.406,8.6-60.477,0-119.375c-6.8-46.553-40.081-108.013-40.081-108.013s-40.493-76.131-62.195-59.01S2600.412,1627.594,2602.947,1607.267Z" transform="translate(-2089.087 -1165)" fill="#5c3411"/>
          <path id="Path_138" data-name="Path 138" d="M2595.081,1847.555s37.277-.614,63.465-36.419,25.244-33.03,44.255-107.1,10.114-110.538,33.112-147.385,45.639-14.392,64.939,6.307,52.174,73.718,66.766,146.759-8.4,145.406-8.4,145.406,8.6-60.477,0-119.375c-6.8-46.553-40.081-108.013-40.081-108.013s-40.493-76.131-62.195-59.01-21.031,59.01-21.031,59.01,24.3-8.382,21.031,13.031-1.055,27.508-15.277,63.27-38.124,85.047-74.029,124.245-85.3,33.753-85.3,33.753Z" transform="translate(-2219.134 -1188)" fill="#f7e5be"/>
          <path id="Path_139" data-name="Path 139" d="M2770.372,2008.551s84.342-217.023,84.925-255.922-48.463-192.111-83.828-224.312-83.433-46.107-136.751-65.824-76.52-13.045-76.52-13.045v-24.879s17.133-5.043,76.52,18.094,114.427,41.964,150.777,79.726,87.056,181.292,87.517,230.24-87.517,261.1-87.517,261.1Z" transform="translate(-2184.795 -1188)" fill="#e5c2a7"/>
          <path id="Path_140" data-name="Path 140" d="M2632.082,2045.373s.559,26.071,7.777,49.947a125.561,125.561,0,0,0,11.42,26.391c13,21.142,35.49,40.753,56.211,45.655s44.164,5.278,70.488-11.144,34.579-42.526,34.808-54.543,0-28.434,0-28.434l-20.69,48.466-34.081,12.595h-47.858l-25.468-12.595-21.773-26.391-9.045-22.074-11.021-38.716-5.6-7.084Z" transform="translate(-2198.555 -1188)" fill="#744721"/>
          <path id="Path_115" data-name="Path 115" d="M2602.881,1862.605s-20.56,33.28-17.731,50.514,26.317,111.3,34.607,168.5c6.864,47.363,17.755,150.691,20.879,189.164.621,7.641-52.127-11.691-63.916,57.164-3.831,22.378-4.213,40.741-5.618,96.261s17.816,112.666,22.378,122c22.955,46.946,139.97,13.74,139.97,13.74h154.806V2064.347l-73.118-48.54-9.567,71.024-43.371,39.752-63.556,15.237-40.966-23.238-26.7-54.234,26.7-48.54-26.7-65.637Z" transform="translate(-2503.384 -1189)" fill="#6e401b"/>
          <g id="Group_31" data-name="Group 31" transform="translate(384.864 455.67)">
            <path id="Path_111" data-name="Path 111" d="M2860.612,1673.129s-6.725,7.914-19.632,11.4-17.37,3.606-32.071,3.579-26.155-1.043-26.155-1.043-5.546,7.656-7.63,23.55-4.8,28.488-4.8,28.488l2.1-41.548,7.865-27.524L2794.154,1656l16.973-6.278h21.329s10.722,5.083,17.761,10.934A44.2,44.2,0,0,1,2860.612,1673.129Z" transform="translate(-2769.388 -1643.67)" fill="#6e401b"/>
            <path id="Path_110" data-name="Path 110" d="M2861.551,1673.354s-6.527-13.624-17.322-21.03a48.59,48.59,0,0,0-25.857-8.594c-9.315-.5-17.483,2.15-26.437,8.594-13.4,9.647-19.753,26.934-21.243,52.429s0,40.789,0,40.789,2.8-51.2,7.222-63.3,10.359-22.242,26.009-26.6,31.306-2.686,42.313,4.67S2861.551,1673.354,2861.551,1673.354Z" transform="translate(-2770.029 -1643.67)" fill="#f6e3c1"/>
          </g>
          <g id="Group_32" data-name="Group 32" transform="translate(281.864 455.67)">
            <path id="Path_111-2" data-name="Path 111" d="M2770.327,1673.129s6.725,7.914,19.632,11.4,17.37,3.606,32.071,3.579,26.155-1.043,26.155-1.043,5.546,7.656,7.63,23.55,4.8,28.488,4.8,28.488l-2.1-41.548-7.865-27.524L2836.785,1656l-16.973-6.278h-21.329s-10.722,5.083-17.761,10.934A44.2,44.2,0,0,0,2770.327,1673.129Z" transform="translate(-2770.029 -1643.67)" fill="#5c3411"/>
            <path id="Path_110-2" data-name="Path 110" d="M2770.029,1673.354s6.527-13.624,17.322-21.03a48.59,48.59,0,0,1,25.857-8.594c9.315-.5,17.483,2.15,26.437,8.594,13.4,9.647,19.753,26.934,21.243,52.429s0,40.789,0,40.789-2.8-51.2-7.222-63.3-10.359-22.242-26.009-26.6-31.306-2.686-42.313,4.67S2770.029,1673.354,2770.029,1673.354Z" transform="translate(-2770.029 -1643.67)" fill="#f6e3c1"/>
          </g>
          <path id="Path_156" data-name="Path 156" d="M3766.065,2112.753s5.873,29.524,22.012,42.549,28.167,13.92,38.939,22.341,12.984,20.631,16.008,24.911,13.94,11.553,25.844-10.336,24.215-79.464,24.215-79.464l22.984,68.14,9.927,45.89,7.746,50.692L3926,2289.4l-9.927,11.531s-1.735-12.222-17.617-16.724-49.39,14.3-78.154,16.724-57.456-12.9-70.454-4.585-15.51,17.8-15.51,17.8l-12.863-17.8,21.565-110.68Z" transform="translate(-3451 -1199)" fill="url(#linear-gradient-28)"/>
          <path id="Path_144" data-name="Path 144" d="M2741.459,2376.231s10.726-12.678,20.273-20.9,13.007-10.965,16.254-16.33,4.5-15.564,4.5-15.564-3.661-10.626-12.106-12.872-17.189.845-23.782,6.537-11.138,15.291-11.138,15.291h0c-1.614-2.872-6.5-14.545-14.271-18.368s-18.18,2.537-20.965,4.747-10.821,10.663-10.821,10.663l-1.559-6s-8.2-12.279-20.834-11.932-17.7,9.269-21.417,10.721-6.334.865-12.348-8.2-3.095-6.191-3.095-6.191-8.807,2.564-9.007,9.268.719,22.794,6.925,27.17a60.81,60.81,0,0,1,20.39,24.563c6.209,13.065,4.446,27.7,4.446,27.7s13.705-5.216,22.83-15.517,13.669-25.685,13.669-25.685,2.83,1.006,3.773,8.462,0,21.363,0,21.363,10.169-1.632,22.24-9.854a147.793,147.793,0,0,0,26.044-23.033c1.608,1.112,2.825,5.051,2.455,10.284A105.286,105.286,0,0,1,2741.459,2376.231Z" transform="translate(-2157.188 -1188)" fill="#603715"/>
          <path id="Path_146" data-name="Path 146" d="M2704.459,2279.432c1.362-1.788,10.643,4.69,14.8,9.089s6.94,7.805,7.281,15.691a47.266,47.266,0,0,1-4.252,23.075c-3.7,8.053-11.245,15.514-11.245,15.514s4.123-14.413,4.815-26.2-.655-15.446-2.047-20.933S2703.1,2281.22,2704.459,2279.432Z" transform="translate(-2184.656 -1188)" fill="#e9cba7"/>
          <path id="Path_147" data-name="Path 147" d="M2704.459,2279.432c1.362-1.788,10.643,4.69,14.8,9.089s6.94,7.805,7.281,15.691a47.266,47.266,0,0,1-4.252,23.075c-3.7,8.053-11.245,15.514-11.245,15.514s4.123-14.413,4.815-26.2-.655-15.446-2.047-20.933S2703.1,2281.22,2704.459,2279.432Z" transform="translate(-2138.656 -1187)" fill="#e9cba7"/>
          <path id="Path_148" data-name="Path 148" d="M2704.459,2279.432c1.362-1.788,10.643,4.69,14.8,9.089s6.94,7.805,7.281,15.691a47.266,47.266,0,0,1-4.252,23.075c-3.7,8.053-11.245,15.514-11.245,15.514s5.463-14.152,6.155-25.934-.2-11.835-3.387-21.194S2703.1,2281.22,2704.459,2279.432Z" transform="translate(-2093.656 -1187)" fill="#e9cba7"/>
          <path id="Path_149" data-name="Path 149" d="M2632.091,2331.68s-2.214-6.574,3.183-10.33,12.507-.99,13.86,2.45,1.8,8.167-2.779,15.932-15.558,15.131-15.558,15.131a27.071,27.071,0,0,0,2.208-7.134c.552-3.783.228-3.985,0-8S2632.091,2331.68,2632.091,2331.68Z" transform="translate(-2034.442 -1188)" fill="#e9cba7" stroke="#707070" stroke-width="1"/>
          <path id="Path_150" data-name="Path 150" d="M19.737,25.464s2.432,7.221-3.5,11.346S2.5,37.9,1.018,34.119s-1.982-8.97,3.053-17.5S21.159,0,21.159,0a29.737,29.737,0,0,0-2.425,7.835c-.606,4.155-.251,4.377,0,8.784S19.737,25.464,19.737,25.464Z" transform="matrix(-0.978, 0.208, -0.208, -0.978, 573.419, 1172.24)" fill="#e9cba7" stroke="#707070" stroke-width="1"/>
          <path id="Path_151" data-name="Path 151" d="M24.891,32.114s3.067,9.106-4.408,14.309-17.325,1.372-19.2-3.394-2.5-11.312,3.85-22.07S26.684,0,26.684,0a37.507,37.507,0,0,0-3.058,9.881c-.764,5.24-.316,5.52,0,11.078S24.891,32.114,24.891,32.114Z" transform="translate(535.103 1172.756) rotate(155)" fill="#e9cba7" stroke="#707070" stroke-width="1"/>
          <path id="Path_152" data-name="Path 152" d="M2997.444,1627.4S2939.732,1602.68,2877,1602.68s-130.485,24.715-130.485,24.715,38.9-66.684,130.485-63.957S2997.444,1627.4,2997.444,1627.4Z" transform="translate(-2491.544 -1191)" fill="#f7e5be"/>
          <path id="Path_158" data-name="Path 158" d="M2644.969,1809.2s27.512,23.914,29.3,57.015c1.069,19.794-.907,33.463-4.637,49.184a361.088,361.088,0,0,1-11.618,40.428c-3.446,10.168-8.7,22.906-11.465,31.231-5.211,15.679-6.847,21.163-7.933,28.274a89.7,89.7,0,0,0,0,25.615,72.239,72.239,0,0,0,21.861,42.33c13.424,12.334,34.479,19.207,50.276,19.071a56.518,56.518,0,0,0,31.97-10.46c9.767-6.762,17.759-18.472,20.691-25.378,4.583-13.53,4.935-28.127,1.413-39.5s-7.051-16.593-15.4-23.519-18.636-10.123-31.738-8.476c-6.734.847-17.81,5.021-24.229,13.693a33.944,33.944,0,0,0-6.93,22.888,28.809,28.809,0,0,0,6.93,16.864c3.752,4.632,11.065,7.811,20.14,7.174s13.648-2.353,17.345-9.921,2.036-15.238-3.3-18.7-15.927-5.119-20.15-2.227-5.46,3.093-5.46,3.093,1.938,10.442-.966,5.828-2.842-10.94-1.6-13.963c3.321-8.06,10.483-11.965,21.829-11.034s19.6,6.167,23.553,14.756,3,22.289,0,29.75-12.866,15.82-24.968,17.88-21.084-.149-28.108-4.584c-11.114-7.018-17.163-22.288-17.365-36.926s5.252-26.458,15.846-36.068a49.862,49.862,0,0,1,37.386-13.153c13.672.916,30.251,7.672,40.063,21.472s14.356,25.536,12.635,45.174-7.479,33.825-16.93,44.878-29.114,24.725-52.661,24.725-39.687-6.337-52.739-16.838-28.3-26.284-32.2-52.765-2.364-40.906,5.135-59.951,14.817-37.564,22.542-59.051,10.557-38.489,8.109-68.364S2644.969,1809.2,2644.969,1809.2Z" transform="translate(-2167.895 -1166.446)" fill="#6c3e1b"/>
          <path id="Path_160" data-name="Path 160" d="M2752.391,2100.672s21.615,45.67,34.661,90.657,15.7,64.008,17.523,89.292-5.592,3.1-10.226,11.847-9.689,25.554-9.31,40.251,3.7,17.712,3.7,17.712S2777.911,2345,2772.9,2334.6a53.692,53.692,0,0,1-4.84-31.156c1.5-9.518,4.836-16.735,11.18-22.825s9.708-8.685,9.708-8.685-3.115-33.271-7.735-59.078-9.685-36.262-16.4-64.971S2752.391,2100.672,2752.391,2100.672Z" transform="translate(-2310.552 -1188)" fill="#e9cba7"/>
        </g>
        <g id="Group_33" data-name="Group 33" transform="translate(375.596 711.5)">
          <path id="Path_118" data-name="Path 118" d="M2833.159,1986.086s27.3-46.293,0-17.04c-13.214,14.159-32.221,31.084-46.687,39.4-8.837,5.081-16.484,2.076-21.492-1.383a25.365,25.365,0,0,1-4.931-4.475v44.958s11.281,1.633,26.423-5.238c8.606-3.9,33.867-28.452,37.3-32.455S2833.159,2001.154,2833.159,1986.086Z" transform="translate(-2760.049 -1868.5)" fill="#7c5127"/>
          <path id="Path_159" data-name="Path 159" d="M2646.734,1808.506s33.162,26.9,35.222,63.085c1.232,21.638-1.045,36.581-5.343,53.766-2.79,11.157-4.984,20.677-13.385,44.2-3.97,11.116-10.021,25.04-13.209,34.141-6,17.14-7.889,23.135-9.14,30.908a93.086,93.086,0,0,0,0,28,77.733,77.733,0,0,0,25.186,46.273c15.465,13.483,39.723,21,57.923,20.848a67.481,67.481,0,0,0,36.833-11.435c11.253-7.392,20.46-20.193,23.837-27.743,5.28-14.791,5.686-30.747,1.628-43.179s-8.123-18.14-17.74-25.711-21.471-11.066-36.565-9.265c-7.758.926-20.52,5.488-27.914,14.968-6.646,8.52-8.541,17.319-7.985,25.021a34.949,34.949,0,0,0,7.985,19.877,27.518,27.518,0,0,0,23.229,9.563c11.138-.757,17.063-4.318,21.322-12.591s.98-18.075-5.168-21.862-14.6-3.162-19.463,0,0,15.235,0,15.235-7.81-2.874-11.155-7.917-3.275-11.96-1.84-15.264c3.826-8.811,12.078-13.08,25.149-12.062s22.576,6.742,27.135,16.131,3.459,24.366,0,32.521-14.823,17.294-28.766,19.546-24.291-.163-32.383-5.011c-12.8-7.672-19.774-24.364-20.006-40.366s6.05-28.923,18.256-39.428a59.358,59.358,0,0,1,43.073-14.379c15.752,1,34.853,8.387,46.156,23.473s16.54,27.916,14.557,49.383-8.616,36.977-19.505,49.06-33.542,27.029-60.671,27.029-45.723-6.927-60.761-18.407-32.6-28.733-37.1-57.681-2.723-44.718,5.917-65.536,17.071-41.064,25.97-64.553,12.162-42.076,9.342-74.734S2646.734,1808.506,2646.734,1808.506Z" transform="translate(-2557.49 -1899.5)" fill="#e5c4a6"/>
          <path id="Path_117" data-name="Path 117" d="M2870.818,1899.5s-10.358,40.293-37.659,69.546c-13.214,14.159-32.221,31.084-46.687,39.4-8.837,5.081-16.484,2.076-21.492-1.383a25.365,25.365,0,0,1-4.931-4.475v44.958s11.281,1.633,26.423-5.238c8.606-3.9,18.7-12,37.3-32.455s37.109-49.377,37.109-49.377Z" transform="translate(-2760.049 -1885.5)" fill="#e6c2a9"/>
          <path id="Path_116" data-name="Path 116" d="M2870.45,1899.509s-9.99,40.284-37.291,69.537c-13.214,14.159-32.221,31.084-46.687,39.4-14.9,8.569-26.423,7.621-26.423,7.621v31.479s11.281,1.633,26.423-5.238c8.606-3.9,18.7-12,37.3-32.455s24.668-25.654,24.668-25.654,6.771-12.14,12.365-33.315S2870.45,1899.509,2870.45,1899.509Z" transform="translate(-2760.049 -1899.5)" fill="#937042"/>
        </g>
        <path id="Path_131" data-name="Path 131" d="M2870.467,1572.627v287.518l-64.677-33.406-46.7-63.432-29.271-138.362,53.824-30.2Z" transform="translate(-2489 -1188)" fill="url(#linear-gradient-24)"/>
        <path id="Path_129" data-name="Path 129" d="M2869.5,1435.159v152.115l-131.314,29.92-32.737-69.265-51.924,53.572-36.018,73.128-14.437,49.751-3.981,80.467,12,84.714-42.736-121.73,10.833-87.051,38.324-110.97,45.122-58.3,92.281-43.8,96.559-32.558Z" transform="translate(-2489 -1188)" fill="url(#linear-gradient-25)"/>
        <path id="Path_128" data-name="Path 128" d="M2694.04,1582.445l-50.056,66.824-33.342,91.146-8.509,108.184,8.509,39.892,33.342,99.993,10.468,25.733-22.91,41.968,7.862,41.831,29,28.572,43.435,10.194,45.478-10.194,33.527-41.163,14.284-65.119,67.033,12.257-2.12-183.964h-39.361l-67.053-85.4-33.12-120.51,5.1-45.233-19.492-43.5Z" transform="translate(-2489 -1188)" fill="url(#linear-gradient-26)"/>
        <path id="Path_113" data-name="Path 113" d="M2599.081,1866.292s-16.615,29.593-13.948,46.827,24.81,111.3,32.625,168.5,19.715,184.194,18.981,191.306c-.073.709-22.53,7.745-31.2,24.439-4.552,8.766-3.951,28.678,4.074,33.156,22.732,12.685,68.386,28.393,86.609,29.169,15.6.664,65.2-5.546,78.925-34.729,10.583-22.494-12.638-69.465-12.638-69.465l30.424-113.675L2805.3,2102.4l-4.725-23.656-48.533,47.843-59.917,15.237-38.621-23.238-25.17-54.234,25.17-48.54-25.17-65.637Z" transform="translate(-2490 -1189)" fill="url(#linear-gradient-32)"/>
        <path id="Path_108" data-name="Path 108" d="M2728.554,1607.267c-3.687-29.559,16.788-28.657,3.081-50.618-23-36.846-45.639-14.392-64.939,6.307s-52.174,73.718-66.766,146.759,8.4,145.406,8.4,145.406-8.6-60.477,0-119.375c6.8-46.553,40.081-108.013,40.081-108.013s40.493-76.131,62.195-59.01S2731.089,1627.594,2728.554,1607.267Z" transform="translate(-2485 -1165)" fill="#5c3411"/>
        <path id="Path_104" data-name="Path 104" d="M2873.537,1847s-38.347-.063-64.535-35.867-25.244-33.03-44.255-107.1-10.114-110.538-33.112-147.385-45.639-14.392-64.939,6.307-52.174,73.718-66.766,146.759,8.4,145.406,8.4,145.406-8.6-60.477,0-119.375c6.8-46.553,40.081-108.013,40.081-108.013s40.493-76.131,62.195-59.01,21.031,59.01,21.031,59.01-24.3-8.382-21.031,13.031,1.055,27.508,15.277,63.27,38.124,85.047,74.029,124.245,73.627,33.232,73.627,33.232Z" transform="translate(-2491 -1188)" fill="#f7e5be"/>
        <path id="Path_106" data-name="Path 106" d="M2660.838,2008.551s-84.342-217.023-84.925-255.922,48.463-192.111,83.828-224.312,83.433-46.107,136.751-65.824,76.52-13.045,76.52-13.045v-24.879s-17.133-5.043-76.52,18.094-114.427,41.964-150.777,79.726-87.056,181.292-87.517,230.24,87.517,261.1,87.517,261.1Z" transform="translate(-2489 -1188)" fill="#e5c2a7"/>
        <path id="Path_119" data-name="Path 119" d="M2812.887,2045.373s-.559,26.071-7.777,49.947a125.561,125.561,0,0,1-11.42,26.391c-13,21.142-35.49,40.753-56.211,45.655s-44.164,5.278-70.488-11.144-34.579-42.526-34.808-54.543,0-28.434,0-28.434l20.69,48.466,34.081,12.595h47.858l25.468-12.595,21.773-26.391,9.045-22.074,11.021-38.716,5.6-7.084Z" transform="translate(-2489 -1188)" fill="#744721"/>
        <g id="Group_28" data-name="Group 28" transform="translate(-499)">
          <path id="Path_111-3" data-name="Path 111" d="M2770.327,1673.129s6.725,7.914,19.632,11.4,17.37,3.606,32.071,3.579,26.155-1.043,26.155-1.043,5.546,7.656,7.63,23.55,4.8,28.488,4.8,28.488l-2.1-41.548-7.865-27.524L2836.785,1656l-16.973-6.278h-21.329s-10.722,5.083-17.761,10.934A44.2,44.2,0,0,0,2770.327,1673.129Z" transform="translate(-1990 -1188)" fill="#6e401b"/>
          <path id="Path_110-3" data-name="Path 110" d="M2770.029,1673.354s6.527-13.624,17.322-21.03a48.59,48.59,0,0,1,25.857-8.594c9.315-.5,17.483,2.15,26.437,8.594,13.4,9.647,19.753,26.934,21.243,52.429s0,40.789,0,40.789-2.8-51.2-7.222-63.3-10.359-22.242-26.009-26.6-31.306-2.686-42.313,4.67S2770.029,1673.354,2770.029,1673.354Z" transform="translate(-1990 -1188)" fill="#f6e3c1"/>
        </g>
        <g id="Group_30" data-name="Group 30" transform="translate(-499)">
          <path id="Path_118-2" data-name="Path 118" d="M2760.049,1899.5s10.358,40.293,37.659,69.546c13.214,14.159,32.221,31.084,46.687,39.4,8.837,5.081,16.484,2.076,21.492-1.383a25.365,25.365,0,0,0,4.931-4.475v44.958s-11.281,1.633-26.423-5.238c-8.606-3.9-18.7-12-37.3-32.455s-37.109-49.377-37.109-49.377Z" transform="translate(-1990 -1157)" fill="#7c5127"/>
          <path id="Path_117-2" data-name="Path 117" d="M2760.049,1899.5s10.358,40.293,37.659,69.546c13.214,14.159,32.221,31.084,46.687,39.4,8.837,5.081,16.484,2.076,21.492-1.383a25.365,25.365,0,0,0,4.931-4.475l.483,39.182-.337,5.865s-11.427,1.544-26.569-5.326c-8.606-3.9-18.7-12-37.3-32.455s-37.109-49.377-37.109-49.377Z" transform="translate(-1990 -1174)" fill="#e6c2a9"/>
          <path id="Path_116-2" data-name="Path 116" d="M2760.049,1899.5s10.358,40.293,37.659,69.546c13.214,14.159,32.221,31.084,46.687,39.4,14.9,8.569,27.752,7.146,27.752,7.146l1.521,22.865-1.813,9.062s-12.319,1.659-27.46-5.212c-8.606-3.9-18.7-12-37.3-32.455s-37.109-49.377-37.109-49.377Z" transform="translate(-1990 -1188)" fill="#937042"/>
        </g>
        <path id="Path_112" data-name="Path 112" d="M2746.515,1574.749a118.16,118.16,0,0,1,30.285-4.4c15.773,0,32.81,4.4,32.81,4.4s-7.448-10.375-27.985-11.2c-.966-.04-2.995,2.07-4.825,2.108s-3.84-2.205-5.214-2.108C2751.548,1564.96,2746.515,1574.749,2746.515,1574.749Z" transform="translate(-2399.166 -976.353)" fill="#f3dcaa"/>
        <ellipse id="Ellipse_21" data-name="Ellipse 21" cx="9.5" cy="2.5" rx="9.5" ry="2.5" transform="translate(369 601)" fill="#f3dcaa"/>
        <path id="Path_114" data-name="Path 114" d="M2758.516,1809.927s-26.562,23.187-28.351,56.287c-1.069,19.794.907,33.463,4.637,49.184a361.088,361.088,0,0,0,11.618,40.428c3.446,10.168,8.7,22.906,11.465,31.231,5.211,15.679,6.847,21.163,7.933,28.274a89.7,89.7,0,0,1,0,25.615,72.239,72.239,0,0,1-21.861,42.33c-13.424,12.334-34.479,19.207-50.276,19.071a56.518,56.518,0,0,1-31.97-10.46c-9.767-6.762-17.759-18.472-20.691-25.378-4.583-13.53-4.935-28.127-1.413-39.5s7.051-16.593,15.4-23.519,18.636-10.123,31.738-8.476c6.734.847,17.81,5.021,24.229,13.693a33.944,33.944,0,0,1,6.93,22.888,28.809,28.809,0,0,1-6.93,16.864c-3.752,4.632-11.065,7.811-20.14,7.174s-13.648-2.353-17.345-9.921-2.036-15.238,3.3-18.7,15.927-5.119,20.15-2.227,5.46,3.093,5.46,3.093-1.937,10.442.966,5.828,2.842-10.94,1.6-13.963c-3.321-8.06-10.483-11.965-21.829-11.034s-19.6,6.167-23.553,14.756-3,22.289,0,29.75,12.866,15.82,24.968,17.88,21.084-.149,28.108-4.584c11.114-7.018,17.163-22.288,17.365-36.926s-5.252-26.458-15.846-36.068a49.862,49.862,0,0,0-37.386-13.153c-13.672.916-30.251,7.672-40.063,21.472s-14.356,25.536-12.635,45.174,7.479,33.825,16.93,44.878,29.114,24.725,52.661,24.725,39.687-6.337,52.739-16.838,28.3-26.284,32.2-52.765,2.364-40.906-5.135-59.951-14.817-37.564-22.542-59.051-10.557-38.489-8.109-68.364S2758.516,1809.927,2758.516,1809.927Z" transform="translate(-2479.125 -1166.446)" fill="#6c3e1b"/>
        <path id="Path_107" data-name="Path 107" d="M2781.575,1808.506s-33.162,26.9-35.222,63.085c-1.232,21.638,1.045,36.581,5.343,53.766,2.79,11.157,4.984,20.677,13.385,44.2,3.97,11.116,10.021,25.04,13.209,34.141,6,17.14,7.889,23.135,9.14,30.908a93.086,93.086,0,0,1,0,28,77.733,77.733,0,0,1-25.186,46.273c-15.465,13.483-39.723,21-57.923,20.848a67.481,67.481,0,0,1-36.833-11.435c-11.253-7.392-20.46-20.193-23.837-27.743-5.28-14.791-5.686-30.747-1.628-43.179s8.123-18.14,17.74-25.711,21.471-11.066,36.565-9.265c7.758.926,20.52,5.488,27.914,14.968,6.646,8.52,8.541,17.319,7.985,25.021a34.949,34.949,0,0,1-7.985,19.877,27.518,27.518,0,0,1-23.229,9.563c-11.138-.757-17.063-4.318-21.322-12.591s-.98-18.075,5.168-21.862,14.6-3.162,19.463,0,0,15.235,0,15.235,7.81-2.874,11.155-7.917,3.275-11.96,1.84-15.264c-3.826-8.811-12.078-13.08-25.149-12.062s-22.576,6.742-27.135,16.131-3.459,24.366,0,32.521,14.823,17.294,28.766,19.546,24.291-.163,32.383-5.011c12.8-7.672,19.774-24.364,20.006-40.366s-6.05-28.923-18.256-39.428a59.358,59.358,0,0,0-43.073-14.379c-15.752,1-34.853,8.387-46.156,23.473s-16.54,27.916-14.557,49.383,8.616,36.977,19.505,49.06,33.542,27.029,60.671,27.029,45.723-6.927,60.761-18.407,32.6-28.733,37.1-57.681,2.723-44.718-5.917-65.536-17.071-41.064-25.97-64.553-12.162-42.076-9.342-74.734S2781.575,1808.506,2781.575,1808.506Z" transform="translate(-2489 -1188)" fill="#e5c4a6"/>
        <path id="Path_127" data-name="Path 127" d="M2662.143,2376.231s-10.726-12.678-20.273-20.9-13.007-10.965-16.254-16.33-4.5-15.564-4.5-15.564,3.661-10.626,12.106-12.872,17.189.845,23.782,6.537,11.138,15.291,11.138,15.291h0c1.614-2.872,6.5-14.545,14.271-18.368s18.18,2.537,20.965,4.747,10.821,10.663,10.821,10.663l1.559-6s8.2-12.279,20.834-11.932,17.7,9.269,21.417,10.721,6.334.865,12.348-8.2,3.095-6.191,3.095-6.191,8.807,2.564,9.007,9.268-.719,22.794-6.925,27.17a60.81,60.81,0,0,0-20.39,24.563c-6.209,13.065-4.446,27.7-4.446,27.7s-13.705-5.216-22.83-15.517-13.669-25.685-13.669-25.685-2.83,1.006-3.773,8.462,0,21.363,0,21.363-10.169-1.632-22.24-9.854a147.793,147.793,0,0,1-26.044-23.033c-1.608,1.112-2.825,5.051-2.455,10.284A105.286,105.286,0,0,0,2662.143,2376.231Z" transform="translate(-2489 -1188)" fill="#603715"/>
        <path id="Path_120" data-name="Path 120" d="M2804.576,2100.672s-21.615,45.67-34.661,90.657-15.7,64.008-17.523,89.292,5.592,3.1,10.226,11.847,9.689,25.554,9.31,40.251-3.7,17.712-3.7,17.712,10.832-5.438,15.841-15.829a53.692,53.692,0,0,0,4.84-31.156c-1.5-9.518-4.836-16.735-11.18-22.825s-9.708-8.685-9.708-8.685,3.115-33.271,7.735-59.078,9.685-36.262,16.4-64.971S2804.576,2100.672,2804.576,2100.672Z" transform="translate(-2489 -1188)" fill="#e9cba7"/>
        <path id="Path_121" data-name="Path 121" d="M2726.611,2279.432c-1.362-1.788-10.643,4.69-14.8,9.089s-6.94,7.805-7.281,15.691a47.266,47.266,0,0,0,4.252,23.075c3.7,8.053,11.245,15.514,11.245,15.514s-4.123-14.413-4.815-26.2.655-15.446,2.047-20.933S2727.973,2281.22,2726.611,2279.432Z" transform="translate(-2489 -1188)" fill="#e9cba7"/>
        <path id="Path_122" data-name="Path 122" d="M2726.611,2279.432c-1.362-1.788-10.643,4.69-14.8,9.089s-6.94,7.805-7.281,15.691a47.266,47.266,0,0,0,4.252,23.075c3.7,8.053,11.245,15.514,11.245,15.514s-4.123-14.413-4.815-26.2.655-15.446,2.047-20.933S2727.973,2281.22,2726.611,2279.432Z" transform="translate(-2535 -1187)" fill="#e9cba7"/>
        <path id="Path_123" data-name="Path 123" d="M2726.611,2279.432c-1.362-1.788-10.643,4.69-14.8,9.089s-6.94,7.805-7.281,15.691a47.266,47.266,0,0,0,4.252,23.075c3.7,8.053,11.245,15.514,11.245,15.514s-5.463-14.152-6.155-25.934.2-11.835,3.387-21.194S2727.973,2281.22,2726.611,2279.432Z" transform="translate(-2580 -1187)" fill="#e9cba7"/>
        <path id="Path_124" data-name="Path 124" d="M2648.766,2331.68s2.214-6.574-3.183-10.33-12.507-.99-13.86,2.45-1.8,8.167,2.779,15.932,15.558,15.131,15.558,15.131a27.071,27.071,0,0,1-2.208-7.134c-.552-3.783-.228-3.985,0-8S2648.766,2331.68,2648.766,2331.68Z" transform="translate(-2489 -1188)" fill="#e9cba7" stroke="#707070" stroke-width="1"/>
        <path id="Path_125" data-name="Path 125" d="M2650.533,2332.874s2.432-7.221-3.5-11.346-13.737-1.088-15.223,2.691-1.982,8.97,3.053,17.5,17.088,16.619,17.088,16.619a29.737,29.737,0,0,1-2.425-7.835c-.606-4.155-.251-4.377,0-8.784S2650.533,2332.874,2650.533,2332.874Z" transform="matrix(0.978, 0.208, -0.208, 0.978, -1898.986, -1681.535)" fill="#e9cba7" stroke="#707070" stroke-width="1"/>
        <path id="Path_126" data-name="Path 126" d="M2655.688,2336.353s3.067-9.106-4.408-14.309-17.325-1.372-19.2,3.394-2.5,11.313,3.85,22.07,21.551,20.959,21.551,20.959a37.507,37.507,0,0,1-3.058-9.881c-.764-5.24-.316-5.52,0-11.078S2655.688,2336.353,2655.688,2336.353Z" transform="translate(-1161.043 -2085.627) rotate(25)" fill="#e9cba7" stroke="#707070" stroke-width="1"/>
        <path id="Path_130" data-name="Path 130" d="M2746.515,1627.4s57.711-24.715,120.443-24.715,130.485,24.715,130.485,24.715-38.9-66.684-130.485-63.957S2746.515,1627.4,2746.515,1627.4Z" transform="translate(-2495 -1191)" fill="#f7e5be"/>
        <g id="Group_35" data-name="Group 35">
          <path id="Path_154" data-name="Path 154" d="M2337.349,1389.212s11.2,16.548,14.931,42.049,0,59.952,0,59.952h44.684s-3.217-34.452,0-59.952,12.868-42.049,12.868-42.049-17.195-17.326-35.316-17.326S2337.349,1389.212,2337.349,1389.212Z" transform="translate(-1996.349 -1172)" fill="#5c3411"/>
          <path id="Path_155" data-name="Path 155" d="M2337.349,1389.212s8.611,16.548,11.481,42.049,0,59.952,0,59.952h34.36s-2.474-34.452,0-59.952,9.895-42.049,9.895-42.049-13.222-17.326-27.156-17.326S2337.349,1389.212,2337.349,1389.212Z" transform="translate(-1988.349 -1188)" fill="#5c3411"/>
        </g>
      </g>
    </g>
  </g>
</svg>
