<svg xmlns="http://www.w3.org/2000/svg" width="167" height="167" viewBox="0 0 167 167">
  <g id="token" transform="translate(-179 -168)">
    <circle id="Ellipse_19" data-name="Ellipse 19" cx="83.5" cy="83.5" r="83.5" transform="translate(179 168)" fill="#0ca267"/>
    <g id="Group_18" data-name="Group 18" transform="translate(218 203)">
      <g id="Group_2" data-name="Group 2" transform="translate(10.112 9.034)">
        <path id="Path_39" data-name="Path 39" d="M60.3,80.171,49.972,63.951a10.931,10.931,0,0,0,2.392-6.922V48.421A1.645,1.645,0,0,0,50.821,46.7H47.734V38.744l18.8-2.445-.54-3.392-.54-3.392-2.13-13.482-.54-3.392-.54-3.392L11.016,22.8a1.722,1.722,0,0,0-1.158,1.963l.262,1.687,1.605,10.176.54,3.392.262,1.687a1.584,1.584,0,0,0,1.513,1.429.676.676,0,0,0,.185-.017L38.473,39.95V46.7H35.386a1.645,1.645,0,0,0-1.543,1.722V57.03a10.944,10.944,0,0,0,2.408,6.922L25.971,80.085a.529.529,0,0,0-.077.12L17.158,93.91a1.864,1.864,0,0,0,.355,2.411,1.494,1.494,0,0,0,.9.31,1.541,1.541,0,0,0,1.266-.723l8.319-13.051h13.57V94.909a1.553,1.553,0,1,0,3.087,0V82.857H58.229l8.319,13.051a1.5,1.5,0,0,0,1.25.723,1.461,1.461,0,0,0,.9-.31,1.867,1.867,0,0,0,.371-2.411ZM46.19,57.03A3.105,3.105,0,1,1,43.1,53.586,3.279,3.279,0,0,1,46.19,57.03ZM30.185,79.413l8.489-13.327a8.565,8.565,0,0,0,2.886,1.119h0V79.413Zm14.465,0V67.2a8.643,8.643,0,0,0,2.9-1.118l8.489,13.327Z" transform="translate(-9.835 -9.25)" fill="#23584e"/>
      </g>
      <g id="Group_3" data-name="Group 3" transform="translate(65.002 0)">
        <path id="Path_40" data-name="Path 40" d="M63.659,5.427a1.554,1.554,0,0,0-1.79-1.395l-15.2,2.979a1.583,1.583,0,0,0-.988.706A2,2,0,0,0,45.4,8.836a.657.657,0,0,0,.015.172l.509,3.237.54,3.392L50.278,39.69l.509,3.237a.592.592,0,0,0,.046.155A1.544,1.544,0,0,0,52.3,44.339a1.268,1.268,0,0,0,.262-.017l15.2-3a1.551,1.551,0,0,0,1-.706,1.882,1.882,0,0,0,.247-1.291Z" transform="translate(-45.399 -4.003)" fill="#23584e"/>
      </g>
      <g id="Group_4" data-name="Group 4" transform="translate(0 26.837)">
        <path id="Path_41" data-name="Path 41" d="M11.181,22.982l-.54-3.392L4.559,20.8a1.684,1.684,0,0,0-1.25,1.98L4.914,32.951a1.707,1.707,0,0,0,.633,1.119,1.418,1.418,0,0,0,.88.31,1.532,1.532,0,0,0,.278-.034l6.081-1.188-.54-3.392Z" transform="translate(-3.283 -19.59)" fill="#23584e"/>
      </g>
    </g>
    <g id="Ellipse_20" data-name="Ellipse 20" transform="translate(190 179)" fill="none" stroke="#fff" stroke-width="1">
      <circle cx="73" cy="73" r="73" stroke="none"/>
      <circle cx="73" cy="73" r="72.5" fill="none"/>
    </g>
  </g>
</svg>
