<svg xmlns="http://www.w3.org/2000/svg" width="92.683" height="105.045" viewBox="0 0 92.683 105.045">
  <g id="noun_sigma_865313" transform="translate(53.244 -75.074)">
    <g id="Group_19" data-name="Group 19" transform="translate(-53.244 75.074)">
      <path id="Path_84" data-name="Path 84" d="M7.832,1023.614a3.09,3.09,0,0,0-2.181,5.27L52.9,1076.139,5.651,1123.387a3.091,3.091,0,0,0,2.181,5.271H94.345a3.09,3.09,0,0,0,3.09-3.089v-8.24H91.255v5.15H15.3l44.157-44.158a3.09,3.09,0,0,0,0-4.369L15.3,1029.793H91.255v5.15h6.179v-8.24a3.09,3.09,0,0,0-3.09-3.09Z" transform="translate(-4.751 -1023.613)" fill="#707070" fill-rule="evenodd"/>
    </g>
  </g>
</svg>
